<?xml version="1.0" standalone="no"?>
<!DOCTYPE svg PUBLIC "-//W3C//DTD SVG 1.1//EN" "http://www.w3.org/Graphics/SVG/1.1/DTD/svg11.dtd" >
<svg xmlns="http://www.w3.org/2000/svg">
<metadata></metadata>
<defs>
<font id="coolvetica_rgregular" horiz-adv-x="498" >
<font-face units-per-em="1000" ascent="767" descent="-233" />
<missing-glyph horiz-adv-x="247" />
<glyph unicode="&#x28;C&#x29;" horiz-adv-x="666" d="M333 -9q-131 0 -224.5 100.5t-93.5 241.5t93.5 241t224.5 100q132 0 225 -100t93 -241t-93 -241.5t-225 -100.5zM335 44q111 0 190 84t79 204q0 118 -79.5 203.5t-189.5 85.5q-111 0 -189.5 -85t-78.5 -204q0 -120 78 -204t190 -84zM461 369h-71q-4 18 -17 29t-31 11 q-25 0 -40 -20.5t-15 -52.5q0 -82 53 -82q19 0 33 12t15 32h72q-5 -44 -39.5 -72.5t-83.5 -28.5q-59 0 -91 35t-32 96q0 66 32.5 102.5t93.5 36.5q52 0 85 -27t36 -71z" />
<glyph unicode="&#x28;R&#x29;" horiz-adv-x="447" d="M425 494q0 -79 -56 -135t-136 -56q-79 0 -135 55.5t-56 135.5t56 136t135 56t135.5 -56t56.5 -136zM394 494q0 67 -47 114t-114 47t-114 -47t-47 -114t47 -114t114 -47t114 47t47 114zM251 560h-47v-47h46q27 0 27 23q0 24 -26 24zM306 415h-36v45q0 13 -6 18.5t-21 5.5 h-39v-69h-36v175h89q24 0 39 -14.5t15 -36.5q0 -31 -26 -40q21 -7 21 -34v-50z" />
<glyph unicode="&#x28;P&#x29;" horiz-adv-x="666" d="M333 -9q-131 0 -224.5 100.5t-93.5 241.5t93.5 241t224.5 100q132 0 225 -100t93 -241t-93 -241.5t-225 -100.5zM335 44q111 0 190 84t79 204q0 118 -79.5 203.5t-189.5 85.5q-111 0 -189.5 -85t-78.5 -204q0 -120 78 -204t190 -84zM291 342h64q54 0 54 49q0 45 -54 45 h-64v-94zM291 172h-67v320h141q46 0 74.5 -30t28.5 -74t-28.5 -72t-74.5 -28h-74v-116z" />
<glyph unicode="GT" horiz-adv-x="1108" d="M902 0h-139v548h-140v116h480v-116h-201v-548zM773 -14h121q0 -106 -54.5 -162.5t-140.5 -56.5q-88 0 -142 55.5t-54 144.5v81q-55 -71 -187 -71q-134 0 -217.5 101.5t-83.5 254.5q0 154 86 253.5t241 99.5q119 0 201 -64t89 -163h-140q-5 46 -49 79t-101 33 q-85 0 -135 -64t-50 -180q0 -108 50.5 -170.5t133.5 -62.5q68 0 115 44.5t47 107.5h-147v111h277v-384q0 -48 19.5 -69.5t50.5 -21.5q70 0 70 104z" />
<glyph horiz-adv-x="247" />
<glyph unicode=" "  horiz-adv-x="247" />
<glyph unicode="&#x09;" horiz-adv-x="247" />
<glyph unicode="&#xa0;" horiz-adv-x="247" />
<glyph unicode="!" horiz-adv-x="241" d="M187 0h-135v131h135v-131zM155 184h-69q-39 238 -39 409q0 51 5 71h138q4 -44 4 -74q0 -168 -39 -406z" />
<glyph unicode="&#x22;" horiz-adv-x="264" d="M112 414h-89v250h89v-250zM244 414h-89v250h89v-250z" />
<glyph unicode="#" horiz-adv-x="496" d="M280 274l15 116h-88l-16 -116h89zM329 0h-87l27 189h-88l-24 -189h-85l24 189h-87l9 85h89l15 116h-87l10 85h88l26 189h83l-25 -189h89l24 189h86l-25 -189h88l-12 -85h-87l-15 -116h88l-10 -85h-89z" />
<glyph unicode="$" horiz-adv-x="477" d="M265 260v-177q37 2 60 26.5t23 57.5q0 34 -22 58.5t-61 34.5zM224 400v159q-36 -2 -57.5 -23.5t-21.5 -51.5q0 -31 21 -55t58 -29zM265 -55h-41v39q-112 10 -161 59.5t-49 155.5h120q8 -63 27 -86.5t63 -29.5v193q-104 27 -151 70t-47 121q0 79 56.5 134.5t141.5 56.5v44 h41v-44q185 -6 194 -194h-118q-4 52 -22 72.5t-54 22.5v-172q67 -22 107.5 -42.5t62 -45.5t28.5 -50.5t7 -65.5q0 -87 -56 -140.5t-149 -58.5v-39z" />
<glyph unicode="%" horiz-adv-x="660" d="M132 384q24 0 35.5 29t11.5 95q0 68 -11.5 97t-35.5 29q-47 0 -47 -125t47 -125zM130 331q-113 0 -113 179q0 176 113 176q115 0 115 -175q0 -180 -115 -180zM134 -20h-67l461 704h68zM535 31q24 0 35.5 29t11.5 95q0 68 -11.5 97t-35.5 29q-47 0 -47 -125t47 -125z M533 -22q-113 0 -113 179q0 176 113 176q115 0 115 -175q0 -180 -115 -180z" />
<glyph unicode="&#x26;" d="M355 202v179h125v-179q0 -101 -62 -163t-162 -62q-110 0 -174 58.5t-64 149.5q0 48 23 93.5t57 60.5q-77 40 -77 139q0 83 69.5 134.5t180.5 51.5v-109q-67 0 -94.5 -21.5t-27.5 -70.5q0 -42 28.5 -62t93.5 -20v-94q-60 0 -93 -25.5t-33 -74.5q0 -44 28 -73.5t82 -29.5 q100 0 100 118z" />
<glyph unicode="'" horiz-adv-x="132" d="M112 414h-89v250h89v-250z" />
<glyph unicode="(" horiz-adv-x="322" d="M322 -143h-95q-77 93 -118.5 208.5t-41.5 235.5q0 246 160 427h95q-122 -203 -122 -429q0 -228 122 -442z" />
<glyph unicode=")" horiz-adv-x="322" d="M103 -143h-95q122 214 122 442q0 226 -122 429h95q160 -181 160 -427q0 -120 -41.5 -235.5t-118.5 -208.5z" />
<glyph unicode="*" horiz-adv-x="534" d="M453 260l-88 -63l-98 129l-95 -129l-90 63l96 136l-146 46l33 101l143 -46v167h118v-167l143 46l36 -101l-148 -46z" />
<glyph unicode="+" horiz-adv-x="518" d="M305 107h-94v189h-188v94h188v188h94v-188h189v-94h-189v-189z" />
<glyph unicode="," horiz-adv-x="184" d="M23 -156v50q76 19 77 106h-77v135h138v-102q0 -86 -30.5 -129.5t-107.5 -59.5z" />
<glyph unicode="-" horiz-adv-x="274" d="M261 257h-248v101h248v-101z" />
<glyph unicode="." horiz-adv-x="184" d="M162 0h-139v135h139v-135z" />
<glyph unicode="/" horiz-adv-x="294" d="M102 0h-107l190 664h109z" />
<glyph unicode="0" horiz-adv-x="485" d="M247 82q48 0 71 58t23 191q0 135 -23 193t-71 58q-49 0 -72 -57.5t-23 -191.5q0 -135 23 -193t72 -58zM243 -23q-226 0 -226 358q0 351 226 351q230 0 230 -349q0 -181 -60 -270.5t-170 -89.5z" />
<glyph unicode="1" horiz-adv-x="293" d="M270 0h-130v459h-136v90q83 0 118.5 27.5t41.5 87.5h106v-664z" />
<glyph unicode="2" horiz-adv-x="460" d="M456 0h-452q1 100 40.5 172t159.5 158q72 52 97.5 84t25.5 74q0 87 -92 87q-47 0 -72 -27t-25 -91h-125q0 107 57 168t159 61q104 0 164.5 -49.5t60.5 -144.5q0 -74 -41 -128t-151 -132q-39 -28 -64.5 -61t-27.5 -58h286v-113z" />
<glyph unicode="3" horiz-adv-x="474" d="M184 298v91q77 0 106 24.5t29 66.5q0 102 -86 102q-39 0 -63.5 -29t-24.5 -80h-121q0 95 59.5 154t154.5 59q87 0 146.5 -51t59.5 -130q0 -47 -20 -87t-58 -62q99 -41 99 -164q0 -99 -64.5 -157t-169.5 -58q-103 0 -160.5 58t-57.5 160h125q0 -111 99 -111 q42 0 68.5 29.5t26.5 80.5q0 58 -33 81t-115 23z" />
<glyph unicode="4" horiz-adv-x="471" d="M265 246v234l-136 -234h136zM392 0h-130v145h-258v113l242 406h146v-418h75v-101h-75v-145z" />
<glyph unicode="5" horiz-adv-x="485" d="M162 261h-134l14 403h409v-110h-293l-6 -178q44 47 132 47q84 0 138 -56t54 -153q0 -107 -63.5 -172t-165.5 -65q-91 0 -154 54.5t-67 139.5h130q4 -41 28 -64.5t63 -23.5q99 0 99 125q0 110 -91 110q-65 0 -93 -57z" />
<glyph unicode="6" horiz-adv-x="482" d="M246 82q44 0 68.5 35.5t24.5 90.5q0 57 -26 90.5t-69 33.5q-44 0 -71.5 -34t-27.5 -88q0 -58 27 -93t74 -35zM455 520h-129q-5 62 -70 62q-53 0 -80 -51t-33 -159q53 62 136 62q81 0 134.5 -59.5t53.5 -160.5q0 -103 -61 -170t-158 -67q-233 0 -233 333q0 197 60.5 286.5 t186.5 89.5q81 0 132 -43t61 -123z" />
<glyph unicode="7" horiz-adv-x="473" d="M229 0h-134q11 146 70.5 288.5t162.5 260.5h-324v115h465v-100q-110 -122 -171 -267.5t-69 -296.5z" />
<glyph unicode="8" horiz-adv-x="490" d="M245 84q96 0 96 110q0 48 -24 76t-72 28q-94 0 -94 -104q0 -110 94 -110zM245 401q39 0 60 24.5t21 64.5q0 42 -20.5 66t-60.5 24t-60.5 -24t-20.5 -66q0 -40 21 -64.5t60 -24.5zM376 363q45 -20 72 -66.5t27 -102.5q0 -98 -58.5 -157.5t-170.5 -59.5q-110 0 -170.5 59.5 t-60.5 151.5q0 119 104 169q-39 20 -57 59.5t-18 86.5q0 79 57.5 131t144.5 52q95 0 147 -50t52 -129q0 -109 -69 -144z" />
<glyph unicode="9" horiz-adv-x="482" d="M238 331q44 0 71.5 34t27.5 88q0 58 -27 93t-74 35q-44 0 -68.5 -35.5t-24.5 -90.5q0 -57 26 -90.5t69 -33.5zM27 143h129q5 -62 70 -62q53 0 80 51t33 159q-53 -62 -136 -62q-81 0 -134.5 59.5t-53.5 160.5q0 103 61 170t158 67q233 0 233 -333q0 -197 -60.5 -286.5 t-186.5 -89.5q-81 0 -132 43t-61 123z" />
<glyph unicode=":" horiz-adv-x="168" d="M152 0h-138v135h138v-135zM152 339h-138v134h138v-134z" />
<glyph unicode=";" horiz-adv-x="154" d="M10 -156v50q76 19 77 106h-77v135h138v-102q0 -86 -30.5 -129.5t-107.5 -59.5zM148 339h-138v134h138v-134z" />
<glyph unicode="&#x3c;" horiz-adv-x="518" d="M494 96l-471 200v94l471 200v-104l-365 -143l365 -143v-104z" />
<glyph unicode="=" horiz-adv-x="518" d="M494 396h-471v94h471v-94zM494 196h-471v94h471v-94z" />
<glyph unicode="&#x3e;" horiz-adv-x="518" d="M494 296l-471 -200v104l365 143l-365 143v104l471 -200v-94z" />
<glyph unicode="?" horiz-adv-x="486" d="M314 0h-135v131h135v-131zM305 193h-122q0 60 9.5 96t34.5 65q13 15 43.5 37.5t47 44.5t16.5 56q0 46 -25.5 67t-65.5 21q-50 0 -71 -27t-27 -82h-129q0 98 61.5 156.5t162.5 58.5q233 0 233 -187q0 -60 -23 -95t-78 -76q-42 -31 -54.5 -59t-12.5 -76z" />
<glyph unicode="@" horiz-adv-x="708" d="M336 154q45 0 72 43t27 110q0 85 -69 85q-47 0 -76 -38t-29 -114q0 -44 17 -65t58 -21zM615 43l31 -58q-80 -68 -282 -68q-167 0 -258 94.5t-91 249.5q0 161 95 263t258 102q68 0 125.5 -16.5t103 -50.5t71 -90.5t25.5 -131.5q0 -122 -53.5 -193.5t-121.5 -71.5 q-40 0 -63 15t-28 38q-29 -50 -106 -50q-72 0 -108.5 48t-36.5 117q0 98 51.5 162t135.5 64q77 0 98 -63l13 53h78l-52 -247q-6 -27 -6 -36q0 -19 23 -19q39 0 70.5 46.5t31.5 126.5q0 231 -252 231q-86 0 -150 -43.5t-94.5 -109t-30.5 -139.5q0 -132 73 -203t205 -71 q178 0 245 51z" />
<glyph unicode="A" horiz-adv-x="638" d="M402 251l-83 264h-1l-85 -264h169zM635 0h-151l-42 137h-245l-47 -137h-147l237 664h161z" />
<glyph unicode="B" horiz-adv-x="570" d="M157 113h176q47 0 74.5 26.5t27.5 68.5q0 84 -100 84h-178v-179zM324 549h-167v-144h175q84 0 84 72q0 38 -21.5 55t-70.5 17zM322 0h-299v664h327q96 0 148 -48.5t52 -132.5q0 -42 -23 -75.5t-58 -48.5q101 -38 101 -161q0 -93 -63 -145.5t-185 -52.5z" />
<glyph unicode="C" horiz-adv-x="608" d="M469 228h139q-21 -115 -96.5 -183t-189.5 -68q-136 0 -221.5 90.5t-85.5 256.5q0 168 83 265t226 97q121 0 197.5 -68t86.5 -172h-139q-14 55 -54 87.5t-90 32.5q-84 0 -126.5 -61.5t-42.5 -172.5q0 -112 41 -173t121 -61q121 0 151 130z" />
<glyph unicode="D" horiz-adv-x="602" d="M158 113h115q90 0 131.5 56t41.5 170q0 113 -42.5 161.5t-142.5 48.5h-103v-436zM301 0h-278v664h257q137 0 222.5 -88t85.5 -237q0 -152 -79 -245.5t-208 -93.5z" />
<glyph unicode="E" horiz-adv-x="527" d="M527 0h-504v664h488v-116h-353v-142h325v-117h-325v-171h369v-118z" />
<glyph unicode="F" horiz-adv-x="500" d="M454 280h-292v-280h-139v664h473v-116h-334v-151h292v-117z" />
<glyph unicode="G" horiz-adv-x="659" d="M633 0h-115l-3 66q-24 -42 -77 -65.5t-122 -23.5q-133 0 -217 105.5t-84 250.5q0 154 86 253.5t241 99.5q119 0 201 -64t89 -163h-140q-5 46 -49 79t-101 33q-85 0 -135 -64t-50 -180q0 -58 18.5 -109t61.5 -87.5t104 -36.5q68 0 115 44.5t47 107.5h-147v111h277v-357z " />
<glyph unicode="H" horiz-adv-x="582" d="M561 0h-140v298h-259v-298h-139v664h139v-250h259v250h140v-664z" />
<glyph unicode="I" horiz-adv-x="184" d="M162 0h-139v664h139v-664z" />
<glyph unicode="J" horiz-adv-x="449" d="M288 192v472h139v-485q0 -93 -56.5 -147.5t-161.5 -54.5q-97 0 -151 52.5t-54 153.5v68h126v-61q0 -51 18.5 -75.5t60.5 -24.5q47 0 63 22.5t16 79.5z" />
<glyph unicode="K" horiz-adv-x="600" d="M600 0h-169l-197 299l-74 -73v-226h-137v664h137v-270l254 270h180l-262 -262z" />
<glyph unicode="L" horiz-adv-x="496" d="M491 0h-468v664h139v-543h329v-121z" />
<glyph unicode="M" horiz-adv-x="690" d="M667 0h-130v455l-124 -455h-138l-123 453v-453h-129v664h204l120 -487l120 487h200v-664z" />
<glyph unicode="N" horiz-adv-x="586" d="M564 0h-128l-284 446v-446h-129v664h147l264 -427v427h130v-664z" />
<glyph unicode="O" horiz-adv-x="666" d="M334 96q80 0 130 57.5t50 169.5q0 117 -46.5 178.5t-133.5 61.5q-88 0 -135 -61.5t-47 -178.5q0 -227 182 -227zM334 -23q-153 0 -236 90.5t-83 258.5q0 170 83.5 265t235.5 95t234.5 -95.5t82.5 -267.5q0 -170 -81.5 -258t-235.5 -88z" />
<glyph unicode="P" horiz-adv-x="529" d="M162 354h132q58 0 85.5 26.5t27.5 72.5q0 44 -28 70t-85 26h-132v-195zM162 0h-139v664h293q96 0 154.5 -61.5t58.5 -153.5t-58.5 -150t-154.5 -58h-154v-241z" />
<glyph unicode="Q" horiz-adv-x="666" d="M542 -14h122q0 -95 -57 -157t-145 -62q-83 0 -136 56t-53 144v21q-126 17 -192 102.5t-66 235.5q0 170 83.5 265t235.5 95t234.5 -95.5t82.5 -267.5q0 -125 -66 -217t-183 -110q0 -54 19.5 -81t52.5 -27q30 0 49 25.5t19 72.5zM334 96q80 0 130 57.5t50 169.5 q0 117 -46.5 178.5t-133.5 61.5q-88 0 -135 -61.5t-47 -178.5q0 -227 182 -227z" />
<glyph unicode="R" horiz-adv-x="573" d="M337 549h-179v-177h174q102 0 102 88q0 89 -97 89zM546 0h-136v171q0 49 -22.5 69t-81.5 20h-148v-260h-135v664h337q91 0 147.5 -54t56.5 -138q0 -54 -26 -95.5t-73 -58.5q45 -14 63 -43t18 -87v-188z" />
<glyph unicode="S" horiz-adv-x="558" d="M531 468h-132q-10 101 -133 101q-118 0 -118 -81q0 -57 103 -81q135 -32 197 -58q50 -21 77 -59.5t27 -112.5q0 -92 -72 -146t-179 -54q-287 0 -295 222h134q1 -50 41 -80t102 -30q64 0 99 24t35 65q0 35 -21.5 55.5t-81.5 33.5q-166 35 -229.5 78t-63.5 144 q0 87 63.5 142t181.5 55q119 0 190 -59.5t75 -158.5z" />
<glyph unicode="T" horiz-adv-x="549" d="M343 0h-139v548h-200v116h540v-116h-201v-548z" />
<glyph unicode="U" horiz-adv-x="581" d="M416 221v443h142v-443q0 -120 -70.5 -182t-202.5 -62q-124 0 -193 59.5t-69 176.5v451h141v-438q0 -62 31.5 -98t87.5 -36q133 0 133 129z" />
<glyph unicode="V" horiz-adv-x="588" d="M359 0h-131l-225 664h148l145 -466l144 466h144z" />
<glyph unicode="W" horiz-adv-x="852" d="M663 0h-134l-103 432l-105 -432h-130l-188 664h148l109 -430l92 430h146l101 -430l108 430h142z" />
<glyph unicode="X" horiz-adv-x="600" d="M596 0h-169l-127 228l-134 -228h-162l215 339l-203 325h164l120 -215l121 215h161l-202 -319z" />
<glyph unicode="Y" horiz-adv-x="597" d="M372 0h-139v251l-230 413h162l140 -270l129 270h160l-222 -415v-249z" />
<glyph unicode="Z" horiz-adv-x="527" d="M523 0h-519v118l345 430h-335v116h509v-109l-347 -437h347v-118z" />
<glyph unicode="[" horiz-adv-x="314" d="M300 -130h-228v849h228v-89h-113v-673h113v-87z" />
<glyph unicode="\" horiz-adv-x="288" d="M294 0h-107l-192 664h109z" />
<glyph unicode="]" horiz-adv-x="312" d="M240 -130h-230v87h115v673h-115v89h230v-849z" />
<glyph unicode="^" horiz-adv-x="454" d="M440 473h-139l-73 87l-75 -87h-138l165 191h93z" />
<glyph unicode="_" horiz-adv-x="482" d="M485 -126h-485v58h485v-58z" />
<glyph unicode="`" horiz-adv-x="354" d="M273 554l-223 94l47 82l207 -121z" />
<glyph unicode="a" horiz-adv-x="481" d="M324 187l1 54q-16 -16 -84 -29q-55 -10 -76.5 -27.5t-21.5 -49.5q0 -55 63 -55q50 0 83.5 31.5t34.5 75.5zM455 0h-121q-6 19 -8 44q-52 -57 -149 -57q-81 0 -122.5 36.5t-41.5 98.5q0 41 12 71t28.5 47t50.5 29t60 17t75 12q48 7 65.5 18.5t17.5 37.5q0 24 -22.5 37.5 t-60.5 13.5q-79 0 -89 -73h-121q3 173 216 173q113 0 161.5 -48.5t48.5 -145.5v-311z" />
<glyph unicode="b" horiz-adv-x="519" d="M259 93q49 0 80 41.5t31 107.5q0 152 -112 152q-109 0 -109 -160q0 -62 31.5 -101.5t78.5 -39.5zM151 0h-125v672h128v-244q55 77 146 77q94 0 148 -70t54 -184q0 -122 -59 -193t-154 -71q-92 0 -137 73z" />
<glyph unicode="c" horiz-adv-x="476" d="M338 178h131q-10 -85 -73 -138t-153 -53q-104 0 -165 68t-61 197q0 128 61 190.5t169 62.5q96 0 156.5 -51t66.5 -138h-131q-5 38 -30.5 59.5t-62.5 21.5q-100 0 -100 -142q0 -76 27.5 -117.5t68.5 -41.5q39 0 65.5 21.5t30.5 60.5z" />
<glyph unicode="d" horiz-adv-x="518" d="M259 93q47 0 78.5 39.5t31.5 101.5q0 160 -109 160q-112 0 -112 -152q0 -66 31 -107.5t80 -41.5zM492 0h-125l-1 60q-45 -73 -137 -73q-95 0 -154 71t-59 193q0 114 54 184t148 70q91 0 146 -77v244h128v-672z" />
<glyph unicode="e" d="M149 294h201q-1 52 -30.5 80t-70.5 28q-40 0 -68 -29t-32 -79zM484 212h-339q3 -56 32.5 -89t77.5 -33q32 0 56.5 15t31.5 40h134q-22 -75 -79.5 -116.5t-136.5 -41.5q-246 0 -246 268q0 115 63 182.5t175 67.5q231 0 231 -293z" />
<glyph unicode="f" horiz-adv-x="289" d="M205 0h-128v400h-73v92h73q0 180 209 180v-105q-49 0 -65 -15.5t-16 -59.5h84v-92h-84v-400z" />
<glyph unicode="g" horiz-adv-x="525" d="M262 98q48 0 79.5 37.5t31.5 98.5q0 158 -111 158t-111 -150q0 -65 31 -104.5t80 -39.5zM369 -15v81q-13 -33 -49.5 -51.5t-85.5 -18.5q-113 0 -165.5 72.5t-52.5 180.5q0 113 62 184.5t153 71.5q92 0 138 -74v61h130v-497q0 -107 -69 -167.5t-176 -60.5 q-105 0 -171.5 56t-66.5 150h121q0 -44 29.5 -69t78.5 -25q53 0 88.5 29t35.5 77z" />
<glyph unicode="h" d="M472 0h-131v305q0 54 -19.5 75.5t-64.5 21.5q-47 0 -74 -34t-27 -86v-282h-130v672h130v-244q14 33 55 55t90 22q77 0 124 -42t47 -115v-348z" />
<glyph unicode="i" horiz-adv-x="188" d="M159 0h-130v492h130v-492zM159 551h-130v121h130v-121z" />
<glyph unicode="j" horiz-adv-x="183" d="M26 -28v520h131v-525q0 -88 -55.5 -144t-138.5 -56q-99 0 -148.5 54t-49.5 152h122q0 -91 69 -91q70 0 70 90zM157 551h-131v121h131v-121z" />
<glyph unicode="k" horiz-adv-x="478" d="M474 0h-146l-108 221l-63 -65v-156h-131v672h131v-367l162 187h159l-165 -181z" />
<glyph unicode="l" horiz-adv-x="181" d="M156 0h-130v672h130v-672z" />
<glyph unicode="m" horiz-adv-x="756" d="M730 0h-127v298q0 44 -21.5 72.5t-55.5 28.5q-36 0 -59.5 -30t-23.5 -75v-294h-130v296q0 58 -17 78.5t-61 20.5q-79 0 -79 -96v-299h-130v492h122v-72q24 47 58.5 66t85.5 19q49 0 78.5 -17t58.5 -61q39 78 133 78q73 0 120.5 -47t47.5 -117v-341z" />
<glyph unicode="n" d="M472 0h-131v298q0 56 -18.5 76.5t-65.5 20.5q-101 0 -101 -113v-282h-130v492h124v-72q46 85 159 85q73 0 118 -43t45 -121v-341z" />
<glyph unicode="o" horiz-adv-x="534" d="M268 96q119 0 119 150q0 149 -119 149t-119 -149q0 -150 119 -150zM268 -13q-118 0 -185.5 71t-67.5 188q0 118 68.5 188.5t184.5 70.5q115 0 182.5 -70.5t67.5 -188.5q0 -117 -68 -188t-182 -71z" />
<glyph unicode="p" horiz-adv-x="518" d="M258 98q112 0 112 152q0 66 -31 107.5t-80 41.5q-47 0 -78.5 -39.5t-31.5 -101.5q0 -160 109 -160zM154 -233h-128v725h125l1 -60q45 73 137 73q95 0 154 -71t59 -193q0 -114 -54 -184t-148 -70q-91 0 -146 77v-297z" />
<glyph unicode="q" horiz-adv-x="518" d="M613 -27h122q0 -93 -53 -149.5t-134 -56.5t-133.5 57.5t-52.5 147.5v89q-55 -74 -144 -74q-94 0 -148 70t-54 184q0 122 59 193t154 71q92 0 137 -73l1 60h125v-521q0 -48 16 -68.5t48 -20.5q57 0 57 91zM260 98q109 0 109 160q0 62 -31.5 101.5t-78.5 39.5 q-49 0 -80 -41.5t-31 -107.5q0 -152 112 -152z" />
<glyph unicode="r" horiz-adv-x="315" d="M156 0h-130v492h122v-59q29 45 63.5 58.5t82.5 13.5h17v-133q-18 3 -36 3q-119 0 -119 -119v-256z" />
<glyph unicode="s" horiz-adv-x="467" d="M447 343h-125q-5 34 -25.5 49.5t-62.5 15.5q-81 0 -81 -42q0 -19 19 -31.5t61 -23.5q9 -2 25 -7q121 -33 153 -53q46 -28 49 -93l1 -18q0 -68 -57 -110.5t-161 -42.5q-106 0 -169 46.5t-65 124.5h134q0 -34 27.5 -53.5t71.5 -19.5q39 0 64.5 12t25.5 35q0 26 -18 38 t-61 22q-136 30 -181 68.5t-45 105.5q0 61 51.5 100t159.5 39q199 0 209 -162z" />
<glyph unicode="t" horiz-adv-x="447" d="M305 196v128h121v-140q0 -84 -50.5 -140.5t-148.5 -56.5q-102 0 -151.5 56t-49.5 142v440h128v-133h272v-92h-272v-202q0 -98 75 -98q76 0 76 96z" />
<glyph unicode="u" horiz-adv-x="495" d="M469 0h-123v69q-50 -82 -153 -82q-74 0 -120.5 50t-46.5 131v324h130v-304q0 -92 83 -92q48 0 74.5 31t26.5 81v284h129v-492z" />
<glyph unicode="v" horiz-adv-x="496" d="M315 0h-136l-176 492h145l103 -325l104 325h137z" />
<glyph unicode="w" horiz-adv-x="710" d="M565 0h-133l-78 286l-78 -286h-133l-140 492h137l80 -316l68 316h132l77 -316l75 316h134z" />
<glyph unicode="x" horiz-adv-x="491" d="M488 0h-159l-86 148l-84 -148h-156l165 251l-160 241h157l83 -143l84 143h151l-163 -241z" />
<glyph unicode="y" horiz-adv-x="495" d="M339 -15v80q-13 -32 -49.5 -51t-83.5 -19q-78 0 -129 49t-51 129v319h130v-300q0 -92 83 -92q44 0 72 26t28 66v300h130v-505q0 -101 -64 -160.5t-162 -59.5q-106 0 -161.5 54.5t-55.5 151.5h121q0 -44 26 -69t76 -25q37 0 63.5 29.5t26.5 76.5z" />
<glyph unicode="z" horiz-adv-x="440" d="M433 0h-424v100l251 289h-234v103h400v-105l-251 -281h258v-106z" />
<glyph unicode="{" horiz-adv-x="329" d="M314 -131h-37q-103 0 -136.5 36t-33.5 122q0 12 2.5 62t2.5 59q0 58 -18 81t-64 23v86q46 0 64 23.5t18 81.5q0 9 -2.5 58t-2.5 61q0 86 33.5 122t136.5 36h37v-82h-22q-43 0 -59 -13.5t-16 -49.5q0 -30 3 -89t3 -89q0 -40 -31.5 -68t-75.5 -34q44 -6 75.5 -34t31.5 -68 q0 -30 -3 -89.5t-3 -89.5q0 -36 16 -49.5t59 -13.5h22v-82z" />
<glyph unicode="|" horiz-adv-x="334" d="M218 -125h-102v861h102v-861z" />
<glyph unicode="}" horiz-adv-x="325" d="M47 -131h-37v82h22q43 0 59 13.5t16 49.5q0 30 -3 89.5t-3 89.5q0 40 31.5 68t75.5 34q-44 6 -75.5 34t-31.5 68q0 30 3 89t3 89q0 36 -16 49.5t-59 13.5h-22v82h37q103 0 136.5 -36t33.5 -122q0 -12 -2.5 -61t-2.5 -58q0 -58 18 -81.5t64 -23.5v-86q-46 0 -64 -23 t-18 -81q0 -9 2.5 -59t2.5 -62q0 -86 -33.5 -122t-136.5 -36z" />
<glyph unicode="~" horiz-adv-x="550" d="M525 406v-101q-61 -67 -148 -67q-41 0 -111.5 29t-104.5 29q-76 0 -136 -76v101q57 67 132 67q52 0 124.5 -28.5t101.5 -28.5q86 0 142 75z" />
<glyph unicode="&#xa1;" horiz-adv-x="241" d="M54 664h135v-131h-135v131zM86 480h69q39 -238 39 -409q0 -51 -5 -71h-138q-4 44 -4 74q0 168 39 406z" />
<glyph unicode="&#xa2;" horiz-adv-x="476" d="M269 0h-47v70q-95 7 -150 74.5t-55 190.5q0 120 54.5 183t150.5 70v76h47v-76q87 -6 141 -56.5t60 -131.5h-131q-4 31 -23 51.5t-47 25.5v-296q29 7 47.5 28t21.5 52h131q-10 -78 -65 -130t-135 -60v-71zM222 181v297q-76 -16 -76 -140q0 -68 21 -107.5t55 -49.5z" />
<glyph unicode="&#xa3;" horiz-adv-x="477" d="M455 0h-429v484q0 93 56 147.5t162 54.5q103 0 156.5 -45.5t53.5 -158.5v-77h-131v76q0 49 -16 70t-63 21t-63 -20.5t-16 -69.5v-133h290v-82h-290v-146h290v-121z" />
<glyph unicode="&#xa4;" horiz-adv-x="536" d="M443 96l-63 68q-53 -32 -112 -32q-61 0 -112 32l-63 -68l-72 72l68 63q-32 51 -32 112q0 59 32 112l-67 62l71 71l61 -66q52 33 114 33q61 0 113 -33l61 66l71 -71l-66 -61q33 -52 33 -113q0 -63 -33 -113l67 -62zM416 343q0 61 -43 104.5t-105 43.5q-61 0 -104 -43 t-43 -105q0 -61 42.5 -104t104.5 -43t105 43t43 104z" />
<glyph unicode="&#xa5;" horiz-adv-x="529" d="M464 80h-145v-80h-108v80h-145v76h145v61h-145v75h145v66l-194 306h117l130 -219l131 219h116l-192 -306v-66h145v-75h-145v-61h145v-76z" />
<glyph unicode="&#xa6;" horiz-adv-x="334" d="M218 -125h-102v411h102v-411zM218 736v-397h-102v397h102z" />
<glyph unicode="&#xa7;" horiz-adv-x="528" d="M475 492h-111q-9 85 -112 85q-100 0 -100 -68q0 -48 87 -68q109 -26 166 -49q43 -19 65.5 -51t22.5 -94q0 -65 -45 -110q37 -35 37 -112q0 -78 -60.5 -123t-150.5 -45q-243 0 -249 187h113q1 -42 34.5 -67.5t85.5 -25.5q54 0 83.5 20t29.5 55q0 30 -18 47t-68 28 q-140 30 -193.5 66t-53.5 121q0 70 46 113q-39 39 -39 109q0 73 53.5 119.5t153.5 46.5t160 -50t63 -134zM344 190q35 19 35 58q0 30 -18 47t-69 28q-43 8 -100 26q-47 -15 -47 -62t86 -68q93 -23 113 -29z" />
<glyph unicode="&#xa8;" horiz-adv-x="430" d="M180 579h-130v124h130v-124zM380 579h-130v124h130v-124z" />
<glyph unicode="&#xaa;" horiz-adv-x="325" d="M208 403l1 30q-9 -10 -35 -15t-45.5 -14t-19.5 -30q0 -30 34 -30q28 0 46 17t19 42zM280 300h-66q-4 12 -5 24q-28 -31 -82 -31q-44 0 -67 20t-23 54q0 28 8 46t28 28t37 14t51 9q27 4 36.5 10.5t9.5 20.5q0 28 -46 28q-42 0 -49 -40h-66q2 95 119 95q62 0 88.5 -27 t26.5 -80v-171z" />
<glyph unicode="&#xab;" horiz-adv-x="464" d="M156 145l-143 172l143 174l63 -68l-94 -106l94 -105zM388 145l-143 172l143 174l63 -68l-94 -106l94 -105z" />
<glyph unicode="&#xac;" horiz-adv-x="584" d="M558 0h-118v374h-415v118h533v-492z" />
<glyph unicode="&#xaf;" horiz-adv-x="481" d="M431 602h-381v91h381v-91z" />
<glyph unicode="&#xb0;" horiz-adv-x="368" d="M183 355q-77 0 -114 44t-37 115t37 114.5t114 43.5t114.5 -43.5t37.5 -114.5t-37.5 -115t-114.5 -44zM183 418q42 0 62.5 27t20.5 70t-20 69.5t-63 26.5t-63 -26.5t-20 -69.5t20.5 -70t62.5 -27z" />
<glyph unicode="&#xb1;" horiz-adv-x="518" d="M305 107h-94v189h-188v94h188v188h94v-188h189v-94h-189v-189zM494 -14h-471v94h471v-94z" />
<glyph unicode="&#xb2;" horiz-adv-x="260" d="M243 343h-226q0 50 20 86t80 79q36 26 48.5 42t12.5 37q0 43 -46 43q-48 0 -48 -59h-63q0 54 28.5 84.5t79.5 30.5q52 0 82.5 -25t30.5 -72q0 -37 -20.5 -64t-75.5 -66q-44 -32 -46 -60h143v-56z" />
<glyph unicode="&#xb3;" horiz-adv-x="267" d="M107 492v45q67 0 67 46q0 51 -43 51q-19 0 -31.5 -14.5t-12.5 -40.5h-60q0 48 30 77.5t77 29.5q43 0 73 -25.5t30 -65.5q0 -51 -39 -74q49 -21 49 -82q0 -50 -32 -79t-85 -29q-51 0 -80 29t-29 80h63q0 -55 49 -55q21 0 34.5 14.5t13.5 40.5q0 29 -16.5 40.5t-57.5 11.5z " />
<glyph unicode="&#xb4;" horiz-adv-x="354" d="M304 648l-223 -94l-31 55l207 121z" />
<glyph unicode="&#xb6;" horiz-adv-x="576" d="M516 -100h-108v696h-162v-696h-109v564q-58 8 -84 37.5t-26 70.5q0 50 41.5 82t123.5 32h372l-48 -91v-695z" />
<glyph unicode="&#xb7;" horiz-adv-x="184" d="M162 265h-139v135h139v-135z" />
<glyph unicode="&#xb8;" horiz-adv-x="215" d="M50 -233v43q62 5 64 65h-64v82h115v-54q0 -126 -115 -136z" />
<glyph unicode="&#xb9;" horiz-adv-x="176" d="M150 343h-65v229h-68v45q41 0 59 14t21 44h53v-332z" />
<glyph unicode="&#xba;" horiz-adv-x="354" d="M177 353q66 0 66 82t-66 82q-65 0 -65 -82t65 -82zM177 293q-64 0 -101.5 39t-37.5 103q0 65 38 104t101 39q64 0 101 -39t37 -104q0 -64 -37.5 -103t-100.5 -39z" />
<glyph unicode="&#xbb;" horiz-adv-x="464" d="M76 145l-63 67l94 105l-94 106l63 68l143 -174zM308 145l-63 67l94 105l-94 106l63 68l143 -174z" />
<glyph unicode="&#xbc;" horiz-adv-x="607" d="M170 343h-65v229h-68v45q41 0 59 14t21 44h53v-332zM84 -20h-67l461 704h68zM494 113v117l-68 -117h68zM558 -10h-65v72h-129v57l121 203h73v-209h37v-51h-37v-72z" />
<glyph unicode="&#xbd;" horiz-adv-x="602" d="M170 343h-65v229h-68v45q41 0 59 14t21 44h53v-332zM84 -20h-67l461 704h68zM590 -10h-226q0 50 20 86t80 79q36 26 48.5 42t12.5 37q0 43 -46 43q-48 0 -48 -59h-63q0 54 28.5 84.5t79.5 30.5q52 0 82.5 -25t30.5 -72q0 -37 -20.5 -64t-75.5 -66q-44 -32 -46 -60h143 v-56z" />
<glyph unicode="&#xbe;" horiz-adv-x="634" d="M103 492v45q67 0 67 46q0 51 -43 51q-19 0 -31.5 -14.5t-12.5 -40.5h-60q0 48 30 77.5t77 29.5q43 0 73 -25.5t30 -65.5q0 -51 -39 -74q49 -21 49 -82q0 -50 -32 -79t-85 -29q-51 0 -80 29t-29 80h63q0 -55 49 -55q21 0 34.5 14.5t13.5 40.5q0 29 -16.5 40.5t-57.5 11.5z M131 -20h-67l461 704h68zM521 113v117l-68 -117h68zM585 -10h-65v72h-129v57l121 203h73v-209h37v-51h-37v-72z" />
<glyph unicode="&#xbf;" horiz-adv-x="486" d="M171 664h135v-131h-135v131zM180 471h122q0 -60 -9.5 -96t-34.5 -65q-13 -15 -43.5 -37.5t-47 -44.5t-16.5 -56q0 -46 25.5 -67t65.5 -21q50 0 71 27t27 82h129q0 -98 -61.5 -156.5t-162.5 -58.5q-233 0 -233 187q0 60 23 95t78 76q42 31 54.5 59t12.5 76z" />
<glyph unicode="&#xc0;" horiz-adv-x="638" d="M402 251l-83 264h-1l-85 -264h169zM635 0h-151l-42 137h-245l-47 -137h-147l237 664h161zM385 726l-223 94l47 82l207 -121z" />
<glyph unicode="&#xc1;" horiz-adv-x="638" d="M402 251l-83 264h-1l-85 -264h169zM635 0h-151l-42 137h-245l-47 -137h-147l237 664h161zM476 820l-223 -94l-31 55l207 121z" />
<glyph unicode="&#xc2;" horiz-adv-x="638" d="M402 251l-83 264h-1l-85 -264h169zM635 0h-151l-42 137h-245l-47 -137h-147l237 664h161zM454 733l-135 118l-135 -118l-46 51l128 134h106l128 -134z" />
<glyph unicode="&#xc3;" horiz-adv-x="638" d="M402 251l-83 264h-1l-85 -264h169zM635 0h-151l-42 137h-245l-47 -137h-147l237 664h161zM416 873l75 -27q-30 -98 -109 -98q-26 0 -67 22.5t-61 22.5q-5 0 -11 -3t-14 -13.5t-14 -27.5l-69 37q28 88 97 88q33 0 75 -24t58 -24q11 0 23.5 11.5t16.5 35.5z" />
<glyph unicode="&#xc4;" horiz-adv-x="638" d="M402 251l-83 264h-1l-85 -264h169zM635 0h-151l-42 137h-245l-47 -137h-147l237 664h161zM284 751h-130v124h130v-124zM484 751h-130v124h130v-124z" />
<glyph unicode="&#xc5;" horiz-adv-x="638" d="M402 251l-83 264h-1l-85 -264h169zM635 0h-151l-42 137h-245l-47 -137h-147l237 664h161zM423 822q0 -96 -104 -96t-104 96t104 96t104 -96zM371 822q0 51 -52 51q-50 0 -50 -51q0 -49 50 -49q52 0 52 49z" />
<glyph unicode="&#xc6;" horiz-adv-x="881" d="M881 0h-507v137h-177l-47 -137h-147l237 664h625v-116h-353v-142h325v-117h-325v-171h369v-118zM374 251v297h-44l-97 -297h141z" />
<glyph unicode="&#xc7;" horiz-adv-x="608" d="M469 228h139q-21 -115 -96.5 -183t-189.5 -68q-136 0 -221.5 90.5t-85.5 256.5q0 168 83 265t226 97q121 0 197.5 -68t86.5 -172h-139q-14 55 -54 87.5t-90 32.5q-84 0 -126.5 -61.5t-42.5 -172.5q0 -112 41 -173t121 -61q121 0 151 130zM263 -233v43q62 5 64 65h-64v82 h115v-54q0 -126 -115 -136z" />
<glyph unicode="&#xc8;" horiz-adv-x="527" d="M527 0h-504v664h488v-116h-353v-142h325v-117h-325v-171h369v-118zM329 726l-223 94l47 82l207 -121z" />
<glyph unicode="&#xc9;" horiz-adv-x="527" d="M527 0h-504v664h488v-116h-353v-142h325v-117h-325v-171h369v-118zM420 820l-223 -94l-31 55l207 121z" />
<glyph unicode="&#xca;" horiz-adv-x="527" d="M527 0h-504v664h488v-116h-353v-142h325v-117h-325v-171h369v-118zM398 733l-135 118l-135 -118l-46 51l128 134h106l128 -134z" />
<glyph unicode="&#xcb;" horiz-adv-x="527" d="M527 0h-504v664h488v-116h-353v-142h325v-117h-325v-171h369v-118zM228 751h-130v124h130v-124zM428 751h-130v124h130v-124z" />
<glyph unicode="&#xcc;" horiz-adv-x="184" d="M162 0h-139v664h139v-664zM158 726l-223 94l47 82l207 -121z" />
<glyph unicode="&#xcd;" horiz-adv-x="184" d="M162 0h-139v664h139v-664zM249 820l-223 -94l-31 55l207 121z" />
<glyph unicode="&#xce;" horiz-adv-x="184" d="M162 0h-139v664h139v-664zM227 733l-135 118l-135 -118l-46 51l128 134h106l128 -134z" />
<glyph unicode="&#xcf;" horiz-adv-x="184" d="M162 0h-139v664h139v-664zM57 751h-130v124h130v-124zM257 751h-130v124h130v-124z" />
<glyph unicode="&#xd0;" horiz-adv-x="602" d="M301 0h-278v282h-23v99h23v283h257q137 0 222.5 -88t85.5 -237q0 -152 -79 -245.5t-208 -93.5zM158 113h115q90 0 131.5 56t41.5 170q0 113 -42.5 161.5t-142.5 48.5h-103v-168h107v-99h-107v-169z" />
<glyph unicode="&#xd1;" horiz-adv-x="586" d="M564 0h-128l-284 446v-446h-129v664h147l264 -427v427h130v-664zM390 873l75 -27q-30 -98 -109 -98q-26 0 -66.5 22.5t-61.5 22.5q-5 0 -11 -3t-14 -13.5t-14 -27.5l-69 37q28 88 97 88q33 0 75 -24t58 -24q11 0 23.5 11.5t16.5 35.5z" />
<glyph unicode="&#xd2;" horiz-adv-x="666" d="M334 96q80 0 130 57.5t50 169.5q0 117 -46.5 178.5t-133.5 61.5q-88 0 -135 -61.5t-47 -178.5q0 -227 182 -227zM334 -23q-153 0 -236 90.5t-83 258.5q0 170 83.5 265t235.5 95t234.5 -95.5t82.5 -267.5q0 -170 -81.5 -258t-235.5 -88zM399 726l-223 94l47 82l207 -121z " />
<glyph unicode="&#xd3;" horiz-adv-x="666" d="M334 96q80 0 130 57.5t50 169.5q0 117 -46.5 178.5t-133.5 61.5q-88 0 -135 -61.5t-47 -178.5q0 -227 182 -227zM334 -23q-153 0 -236 90.5t-83 258.5q0 170 83.5 265t235.5 95t234.5 -95.5t82.5 -267.5q0 -170 -81.5 -258t-235.5 -88zM490 820l-223 -94l-31 55l207 121z " />
<glyph unicode="&#xd4;" horiz-adv-x="666" d="M334 96q80 0 130 57.5t50 169.5q0 117 -46.5 178.5t-133.5 61.5q-88 0 -135 -61.5t-47 -178.5q0 -227 182 -227zM334 -23q-153 0 -236 90.5t-83 258.5q0 170 83.5 265t235.5 95t234.5 -95.5t82.5 -267.5q0 -170 -81.5 -258t-235.5 -88zM468 733l-135 118l-135 -118 l-46 51l128 134h106l128 -134z" />
<glyph unicode="&#xd5;" horiz-adv-x="666" d="M334 96q80 0 130 57.5t50 169.5q0 117 -46.5 178.5t-133.5 61.5q-88 0 -135 -61.5t-47 -178.5q0 -227 182 -227zM334 -23q-153 0 -236 90.5t-83 258.5q0 170 83.5 265t235.5 95t234.5 -95.5t82.5 -267.5q0 -170 -81.5 -258t-235.5 -88zM430 873l75 -27q-30 -98 -109 -98 q-26 0 -67 22.5t-61 22.5q-5 0 -11 -3t-14 -13.5t-14 -27.5l-69 37q28 88 97 88q33 0 75 -24t58 -24q11 0 23.5 11.5t16.5 35.5z" />
<glyph unicode="&#xd6;" horiz-adv-x="666" d="M334 96q80 0 130 57.5t50 169.5q0 117 -46.5 178.5t-133.5 61.5q-88 0 -135 -61.5t-47 -178.5q0 -227 182 -227zM334 -23q-153 0 -236 90.5t-83 258.5q0 170 83.5 265t235.5 95t234.5 -95.5t82.5 -267.5q0 -170 -81.5 -258t-235.5 -88zM298 751h-130v124h130v-124z M498 751h-130v124h130v-124z" />
<glyph unicode="&#xd7;" horiz-adv-x="518" d="M457 209l-66 -66l-134 133l-133 -133l-66 67l133 133l-133 133l66 66l133 -133l134 134l66 -67l-133 -133z" />
<glyph unicode="&#xd8;" horiz-adv-x="666" d="M181 -41l-70 27l24 48q-120 89 -120 292q0 170 83.5 265t235.5 95q62 0 119 -19l24 48l74 -27l-28 -56q128 -91 128 -309q0 -170 -81.5 -258t-235.5 -88q-72 0 -133 22zM461 510l-204 -401q32 -13 77 -13q80 0 130 57.5t50 169.5q0 126 -53 187zM196 156l200 397 q-32 10 -62 10q-88 0 -135 -61.5t-47 -178.5q0 -111 44 -167z" />
<glyph unicode="&#xd9;" horiz-adv-x="581" d="M416 221v443h142v-443q0 -120 -70.5 -182t-202.5 -62q-124 0 -193 59.5t-69 176.5v451h141v-438q0 -62 31.5 -98t87.5 -36q133 0 133 129zM356 726l-223 94l47 82l207 -121z" />
<glyph unicode="&#xda;" horiz-adv-x="581" d="M416 221v443h142v-443q0 -120 -70.5 -182t-202.5 -62q-124 0 -193 59.5t-69 176.5v451h141v-438q0 -62 31.5 -98t87.5 -36q133 0 133 129zM447 820l-223 -94l-31 55l207 121z" />
<glyph unicode="&#xdb;" horiz-adv-x="581" d="M416 221v443h142v-443q0 -120 -70.5 -182t-202.5 -62q-124 0 -193 59.5t-69 176.5v451h141v-438q0 -62 31.5 -98t87.5 -36q133 0 133 129zM425 733l-135 118l-135 -118l-46 51l128 134h106l128 -134z" />
<glyph unicode="&#xdc;" horiz-adv-x="581" d="M416 221v443h142v-443q0 -120 -70.5 -182t-202.5 -62q-124 0 -193 59.5t-69 176.5v451h141v-438q0 -62 31.5 -98t87.5 -36q133 0 133 129zM255 751h-130v124h130v-124zM455 751h-130v124h130v-124z" />
<glyph unicode="&#xdd;" horiz-adv-x="597" d="M372 0h-139v251l-230 413h162l140 -270l129 270h160l-222 -415v-249zM460 820l-223 -94l-31 55l207 121z" />
<glyph unicode="&#xde;" horiz-adv-x="529" d="M162 251h132q49 0 81 27.5t32 70.5q0 42 -31 69t-82 27h-132v-194zM324 137h-162v-137h-139v664h139v-103h167q87 0 143.5 -62.5t56.5 -152.5q0 -91 -57 -150t-148 -59z" />
<glyph unicode="&#xdf;" horiz-adv-x="505" d="M218 -9v105q18 -2 28 -2q56 0 89.5 31.5t33.5 80.5q0 63 -37 90t-106 29v82q58 2 80 23.5t22 60.5q0 44 -24 64t-63 20q-38 0 -62.5 -21.5t-24.5 -62.5v-491h-128v498q0 83 56 132t164 49q106 0 159.5 -47t53.5 -127q0 -51 -17.5 -77t-49.5 -47q59 -27 82 -68.5t23 -99.5 q0 -105 -60 -165.5t-162 -60.5q-38 0 -57 4z" />
<glyph unicode="&#xe0;" horiz-adv-x="481" d="M324 187l1 54q-16 -16 -84 -29q-55 -10 -76.5 -27.5t-21.5 -49.5q0 -55 63 -55q50 0 83.5 31.5t34.5 75.5zM455 0h-121q-6 19 -8 44q-52 -57 -149 -57q-81 0 -122.5 36.5t-41.5 98.5q0 41 12 71t28.5 47t50.5 29t60 17t75 12q48 7 65.5 18.5t17.5 37.5q0 24 -22.5 37.5 t-60.5 13.5q-79 0 -89 -73h-121q3 173 216 173q113 0 161.5 -48.5t48.5 -145.5v-311zM306 554l-223 94l47 82l207 -121z" />
<glyph unicode="&#xe1;" horiz-adv-x="481" d="M324 187l1 54q-16 -16 -84 -29q-55 -10 -76.5 -27.5t-21.5 -49.5q0 -55 63 -55q50 0 83.5 31.5t34.5 75.5zM455 0h-121q-6 19 -8 44q-52 -57 -149 -57q-81 0 -122.5 36.5t-41.5 98.5q0 41 12 71t28.5 47t50.5 29t60 17t75 12q48 7 65.5 18.5t17.5 37.5q0 24 -22.5 37.5 t-60.5 13.5q-79 0 -89 -73h-121q3 173 216 173q113 0 161.5 -48.5t48.5 -145.5v-311zM397 648l-223 -94l-31 55l207 121z" />
<glyph unicode="&#xe2;" horiz-adv-x="481" d="M324 187l1 54q-16 -16 -84 -29q-55 -10 -76.5 -27.5t-21.5 -49.5q0 -55 63 -55q50 0 83.5 31.5t34.5 75.5zM455 0h-121q-6 19 -8 44q-52 -57 -149 -57q-81 0 -122.5 36.5t-41.5 98.5q0 41 12 71t28.5 47t50.5 29t60 17t75 12q48 7 65.5 18.5t17.5 37.5q0 24 -22.5 37.5 t-60.5 13.5q-79 0 -89 -73h-121q3 173 216 173q113 0 161.5 -48.5t48.5 -145.5v-311zM375 561l-135 118l-135 -118l-46 51l128 134h106l128 -134z" />
<glyph unicode="&#xe3;" horiz-adv-x="481" d="M324 187l1 54q-16 -16 -84 -29q-55 -10 -76.5 -27.5t-21.5 -49.5q0 -55 63 -55q50 0 83.5 31.5t34.5 75.5zM455 0h-121q-6 19 -8 44q-52 -57 -149 -57q-81 0 -122.5 36.5t-41.5 98.5q0 41 12 71t28.5 47t50.5 29t60 17t75 12q48 7 65.5 18.5t17.5 37.5q0 24 -22.5 37.5 t-60.5 13.5q-79 0 -89 -73h-121q3 173 216 173q113 0 161.5 -48.5t48.5 -145.5v-311zM338 701l75 -27q-30 -98 -109 -98q-26 0 -66.5 22.5t-61.5 22.5q-5 0 -11 -3t-14 -13.5t-14 -27.5l-69 37q28 88 97 88q33 0 75 -24t58 -24q11 0 23.5 11.5t16.5 35.5z" />
<glyph unicode="&#xe4;" horiz-adv-x="481" d="M324 187l1 54q-16 -16 -84 -29q-55 -10 -76.5 -27.5t-21.5 -49.5q0 -55 63 -55q50 0 83.5 31.5t34.5 75.5zM455 0h-121q-6 19 -8 44q-52 -57 -149 -57q-81 0 -122.5 36.5t-41.5 98.5q0 41 12 71t28.5 47t50.5 29t60 17t75 12q48 7 65.5 18.5t17.5 37.5q0 24 -22.5 37.5 t-60.5 13.5q-79 0 -89 -73h-121q3 173 216 173q113 0 161.5 -48.5t48.5 -145.5v-311zM205 579h-130v124h130v-124zM405 579h-130v124h130v-124z" />
<glyph unicode="&#xe5;" horiz-adv-x="481" d="M324 187l1 54q-16 -16 -84 -29q-55 -10 -76.5 -27.5t-21.5 -49.5q0 -55 63 -55q50 0 83.5 31.5t34.5 75.5zM455 0h-121q-6 19 -8 44q-52 -57 -149 -57q-81 0 -122.5 36.5t-41.5 98.5q0 41 12 71t28.5 47t50.5 29t60 17t75 12q48 7 65.5 18.5t17.5 37.5q0 24 -22.5 37.5 t-60.5 13.5q-79 0 -89 -73h-121q3 173 216 173q113 0 161.5 -48.5t48.5 -145.5v-311zM344 650q0 -96 -104 -96t-104 96t104 96t104 -96zM292 650q0 51 -52 51q-50 0 -50 -51q0 -49 50 -49q52 0 52 49z" />
<glyph unicode="&#xe6;" horiz-adv-x="806" d="M794 212h-339q3 -56 32.5 -89t77.5 -33q32 0 56.5 15t31.5 40h134q-22 -75 -79.5 -116.5t-136.5 -41.5q-133 0 -198 83q-72 -83 -196 -83q-81 0 -122.5 36.5t-41.5 98.5q0 41 12 71t28.5 47t50.5 29t60 17t75 12q48 7 65.5 18.5t17.5 37.5q0 24 -22.5 37.5t-60.5 13.5 q-79 0 -89 -73h-121q3 173 216 173q112 0 162 -50q63 50 156 50q231 0 231 -293zM324 187l1 54q-16 -16 -84 -29q-55 -10 -76.5 -27.5t-21.5 -49.5q0 -55 63 -55q50 0 83.5 31.5t34.5 75.5zM459 294h201q-1 52 -30.5 80t-70.5 28q-40 0 -68 -29t-32 -79z" />
<glyph unicode="&#xe7;" horiz-adv-x="476" d="M338 178h131q-10 -85 -73 -138t-153 -53q-104 0 -165 68t-61 197q0 128 61 190.5t169 62.5q96 0 156.5 -51t66.5 -138h-131q-5 38 -30.5 59.5t-62.5 21.5q-100 0 -100 -142q0 -76 27.5 -117.5t68.5 -41.5q39 0 65.5 21.5t30.5 60.5zM194 -233v43q62 5 64 65h-64v82h115 v-54q0 -126 -115 -136z" />
<glyph unicode="&#xe8;" d="M149 294h201q-1 52 -30.5 80t-70.5 28q-40 0 -68 -29t-32 -79zM484 212h-339q3 -56 32.5 -89t77.5 -33q32 0 56.5 15t31.5 40h134q-22 -75 -79.5 -116.5t-136.5 -41.5q-246 0 -246 268q0 115 63 182.5t175 67.5q231 0 231 -293zM315 554l-223 94l47 82l207 -121z" />
<glyph unicode="&#xe9;" d="M149 294h201q-1 52 -30.5 80t-70.5 28q-40 0 -68 -29t-32 -79zM484 212h-339q3 -56 32.5 -89t77.5 -33q32 0 56.5 15t31.5 40h134q-22 -75 -79.5 -116.5t-136.5 -41.5q-246 0 -246 268q0 115 63 182.5t175 67.5q231 0 231 -293zM406 648l-223 -94l-31 55l207 121z" />
<glyph unicode="&#xea;" d="M149 294h201q-1 52 -30.5 80t-70.5 28q-40 0 -68 -29t-32 -79zM484 212h-339q3 -56 32.5 -89t77.5 -33q32 0 56.5 15t31.5 40h134q-22 -75 -79.5 -116.5t-136.5 -41.5q-246 0 -246 268q0 115 63 182.5t175 67.5q231 0 231 -293zM384 561l-135 118l-135 -118l-46 51 l128 134h106l128 -134z" />
<glyph unicode="&#xeb;" d="M149 294h201q-1 52 -30.5 80t-70.5 28q-40 0 -68 -29t-32 -79zM484 212h-339q3 -56 32.5 -89t77.5 -33q32 0 56.5 15t31.5 40h134q-22 -75 -79.5 -116.5t-136.5 -41.5q-246 0 -246 268q0 115 63 182.5t175 67.5q231 0 231 -293zM214 579h-130v124h130v-124zM414 579h-130 v124h130v-124z" />
<glyph unicode="&#xec;" horiz-adv-x="268" d="M199 0h-130v492h130v-492zM200 554l-223 94l47 82l207 -121z" />
<glyph unicode="&#xed;" horiz-adv-x="268" d="M199 0h-130v492h130v-492zM291 648l-223 -94l-31 55l207 121z" />
<glyph unicode="&#xee;" horiz-adv-x="268" d="M199 0h-130v492h130v-492zM269 561l-135 118l-135 -118l-46 51l128 134h106l128 -134z" />
<glyph unicode="&#xef;" horiz-adv-x="268" d="M199 0h-130v492h130v-492zM99 579h-130v124h130v-124zM299 579h-130v124h130v-124z" />
<glyph unicode="&#xf0;" horiz-adv-x="514" d="M464 651l-62 -36q90 -111 90 -331q0 -82 -20 -142t-54 -92.5t-72.5 -47.5t-81.5 -15q-127 0 -188 69.5t-61 184.5q0 109 57 175.5t159 66.5q46 0 77 -10t55 -45q-7 70 -51 135l-83 -48l-18 28l81 47q-42 50 -95 82h139q21 -13 42 -32l68 39zM258 95q50 0 80.5 34.5 t30.5 94.5q0 71 -28 109.5t-82 38.5t-82.5 -37t-28.5 -103q0 -65 30 -101t80 -36z" />
<glyph unicode="&#xf1;" d="M472 0h-131v298q0 56 -18.5 76.5t-65.5 20.5q-101 0 -101 -113v-282h-130v492h124v-72q46 85 159 85q73 0 118 -43t45 -121v-341zM356 701l75 -27q-30 -98 -109 -98q-26 0 -66.5 22.5t-61.5 22.5q-5 0 -11 -3t-14 -13.5t-14 -27.5l-69 37q28 88 97 88q33 0 75 -24t58 -24 q11 0 23.5 11.5t16.5 35.5z" />
<glyph unicode="&#xf2;" horiz-adv-x="534" d="M268 96q119 0 119 150q0 149 -119 149t-119 -149q0 -150 119 -150zM268 -13q-118 0 -185.5 71t-67.5 188q0 118 68.5 188.5t184.5 70.5q115 0 182.5 -70.5t67.5 -188.5q0 -117 -68 -188t-182 -71zM333 554l-223 94l47 82l207 -121z" />
<glyph unicode="&#xf3;" horiz-adv-x="534" d="M268 96q119 0 119 150q0 149 -119 149t-119 -149q0 -150 119 -150zM268 -13q-118 0 -185.5 71t-67.5 188q0 118 68.5 188.5t184.5 70.5q115 0 182.5 -70.5t67.5 -188.5q0 -117 -68 -188t-182 -71zM424 648l-223 -94l-31 55l207 121z" />
<glyph unicode="&#xf4;" horiz-adv-x="534" d="M268 96q119 0 119 150q0 149 -119 149t-119 -149q0 -150 119 -150zM268 -13q-118 0 -185.5 71t-67.5 188q0 118 68.5 188.5t184.5 70.5q115 0 182.5 -70.5t67.5 -188.5q0 -117 -68 -188t-182 -71zM402 561l-135 118l-135 -118l-46 51l128 134h106l128 -134z" />
<glyph unicode="&#xf5;" horiz-adv-x="534" d="M268 96q119 0 119 150q0 149 -119 149t-119 -149q0 -150 119 -150zM268 -13q-118 0 -185.5 71t-67.5 188q0 118 68.5 188.5t184.5 70.5q115 0 182.5 -70.5t67.5 -188.5q0 -117 -68 -188t-182 -71zM364 701l75 -27q-30 -98 -109 -98q-26 0 -67 22.5t-61 22.5q-5 0 -11 -3 t-14 -13.5t-14 -27.5l-69 37q28 88 97 88q33 0 75 -24t58 -24q11 0 23.5 11.5t16.5 35.5z" />
<glyph unicode="&#xf6;" horiz-adv-x="534" d="M268 96q119 0 119 150q0 149 -119 149t-119 -149q0 -150 119 -150zM268 -13q-118 0 -185.5 71t-67.5 188q0 118 68.5 188.5t184.5 70.5q115 0 182.5 -70.5t67.5 -188.5q0 -117 -68 -188t-182 -71zM232 579h-130v124h130v-124zM432 579h-130v124h130v-124z" />
<glyph unicode="&#xf7;" horiz-adv-x="518" d="M494 296h-471v94h471v-94zM328 490h-139v135h139v-135zM328 63h-139v135h139v-135z" />
<glyph unicode="&#xf8;" horiz-adv-x="534" d="M165 -57l-59 26l23 52q-55 32 -84.5 90.5t-29.5 134.5q0 118 68.5 188.5t184.5 70.5q38 0 76 -10l23 50l63 -26l-23 -50q111 -67 111 -223q0 -117 -68 -188t-182 -71q-45 0 -79 10zM356 359l-120 -260q15 -3 32 -3q119 0 119 150q0 74 -31 113zM180 132l117 260 q-27 3 -29 3q-119 0 -119 -149q0 -77 31 -114z" />
<glyph unicode="&#xf9;" horiz-adv-x="495" d="M469 0h-123v69q-50 -82 -153 -82q-74 0 -120.5 50t-46.5 131v324h130v-304q0 -92 83 -92q48 0 74.5 31t26.5 81v284h129v-492zM313 554l-223 94l47 82l207 -121z" />
<glyph unicode="&#xfa;" horiz-adv-x="495" d="M469 0h-123v69q-50 -82 -153 -82q-74 0 -120.5 50t-46.5 131v324h130v-304q0 -92 83 -92q48 0 74.5 31t26.5 81v284h129v-492zM404 648l-223 -94l-31 55l207 121z" />
<glyph unicode="&#xfb;" horiz-adv-x="495" d="M469 0h-123v69q-50 -82 -153 -82q-74 0 -120.5 50t-46.5 131v324h130v-304q0 -92 83 -92q48 0 74.5 31t26.5 81v284h129v-492zM382 561l-135 118l-135 -118l-46 51l128 134h106l128 -134z" />
<glyph unicode="&#xfc;" horiz-adv-x="495" d="M469 0h-123v69q-50 -82 -153 -82q-74 0 -120.5 50t-46.5 131v324h130v-304q0 -92 83 -92q48 0 74.5 31t26.5 81v284h129v-492zM222 579h-130v124h130v-124zM422 579h-130v124h130v-124z" />
<glyph unicode="&#xfd;" horiz-adv-x="495" d="M339 -15v80q-13 -32 -49.5 -51t-83.5 -19q-78 0 -129 49t-51 129v319h130v-300q0 -92 83 -92q44 0 72 26t28 66v300h130v-505q0 -101 -64 -160.5t-162 -59.5q-106 0 -161.5 54.5t-55.5 151.5h121q0 -44 26 -69t76 -25q37 0 63.5 29.5t26.5 76.5zM404 648l-223 -94l-31 55 l207 121z" />
<glyph unicode="&#xfe;" horiz-adv-x="518" d="M258 93q49 0 80 41.5t31 107.5q0 152 -112 152q-109 0 -109 -160q0 -62 31 -101.5t79 -39.5zM154 -233h-128v905h128v-241q20 39 51.5 56.5t83.5 17.5q103 0 158.5 -76t55.5 -187q0 -114 -54 -184.5t-149 -70.5q-105 0 -146 75v-295z" />
<glyph unicode="&#xff;" horiz-adv-x="495" d="M339 -15v80q-13 -32 -49.5 -51t-83.5 -19q-78 0 -129 49t-51 129v319h130v-300q0 -92 83 -92q44 0 72 26t28 66v300h130v-505q0 -101 -64 -160.5t-162 -59.5q-106 0 -161.5 54.5t-55.5 151.5h121q0 -44 26 -69t76 -25q37 0 63.5 29.5t26.5 76.5zM212 579h-130v124h130 v-124zM412 579h-130v124h130v-124z" />
<glyph unicode="&#x100;" horiz-adv-x="638" d="M402 251l-83 264h-1l-85 -264h169zM635 0h-151l-42 137h-245l-47 -137h-147l237 664h161zM509 774h-381v91h381v-91z" />
<glyph unicode="&#x101;" horiz-adv-x="481" d="M324 187l1 54q-16 -16 -84 -29q-55 -10 -76.5 -27.5t-21.5 -49.5q0 -55 63 -55q50 0 83.5 31.5t34.5 75.5zM455 0h-121q-6 19 -8 44q-52 -57 -149 -57q-81 0 -122.5 36.5t-41.5 98.5q0 41 12 71t28.5 47t50.5 29t60 17t75 12q48 7 65.5 18.5t17.5 37.5q0 24 -22.5 37.5 t-60.5 13.5q-79 0 -89 -73h-121q3 173 216 173q113 0 161.5 -48.5t48.5 -145.5v-311zM431 602h-381v91h381v-91z" />
<glyph unicode="&#x102;" horiz-adv-x="638" d="M402 251l-83 264h-1l-85 -264h169zM635 0h-151l-42 137h-245l-47 -137h-147l237 664h161zM399 918h82q0 -79 -47.5 -122.5t-114.5 -43.5t-114.5 43.5t-47.5 122.5h82q2 -41 22.5 -64t57.5 -23t57.5 23t22.5 64z" />
<glyph unicode="&#x103;" horiz-adv-x="481" d="M324 187l1 54q-16 -16 -84 -29q-55 -10 -76.5 -27.5t-21.5 -49.5q0 -55 63 -55q50 0 83.5 31.5t34.5 75.5zM455 0h-121q-6 19 -8 44q-52 -57 -149 -57q-81 0 -122.5 36.5t-41.5 98.5q0 41 12 71t28.5 47t50.5 29t60 17t75 12q48 7 65.5 18.5t17.5 37.5q0 24 -22.5 37.5 t-60.5 13.5q-79 0 -89 -73h-121q3 173 216 173q113 0 161.5 -48.5t48.5 -145.5v-311zM320 746h82q0 -79 -47.5 -122.5t-114.5 -43.5t-114.5 43.5t-47.5 122.5h82q2 -41 22.5 -64t57.5 -23t57.5 23t22.5 64z" />
<glyph unicode="&#x104;" horiz-adv-x="638" d="M635 -117v-90q-33 -26 -105 -26q-53 0 -81.5 22.5t-28.5 62.5q0 47 45.5 85t126.5 63h-108l-42 137h-245l-47 -137h-147l237 664h161l234 -664q-72 -32 -92.5 -50.5t-20.5 -41.5q0 -33 64 -33q25 0 49 8zM402 251l-83 264h-1l-85 -264h169z" />
<glyph unicode="&#x105;" horiz-adv-x="481" d="M455 -117v-90q-33 -26 -105 -26q-53 0 -81.5 22.5t-28.5 62.5q0 47 45.5 85t126.5 63h-78q-6 19 -8 44q-52 -57 -149 -57q-81 0 -122.5 36.5t-41.5 98.5q0 41 12 71t28.5 47t50.5 29t60 17t75 12q48 7 65.5 18.5t17.5 37.5q0 24 -22.5 37.5t-60.5 13.5q-79 0 -89 -73 h-121q3 173 216 173q113 0 161.5 -48.5t48.5 -145.5v-311q-72 -32 -92.5 -50.5t-20.5 -41.5q0 -33 64 -33q25 0 49 8zM324 187l1 54q-16 -16 -84 -29q-55 -10 -76.5 -27.5t-21.5 -49.5q0 -55 63 -55q50 0 83.5 31.5t34.5 75.5z" />
<glyph unicode="&#x106;" horiz-adv-x="608" d="M469 228h139q-21 -115 -96.5 -183t-189.5 -68q-136 0 -221.5 90.5t-85.5 256.5q0 168 83 265t226 97q121 0 197.5 -68t86.5 -172h-139q-14 55 -54 87.5t-90 32.5q-84 0 -126.5 -61.5t-42.5 -172.5q0 -112 41 -173t121 -61q121 0 151 130zM461 820l-223 -94l-31 55 l207 121z" />
<glyph unicode="&#x107;" horiz-adv-x="476" d="M338 178h131q-10 -85 -73 -138t-153 -53q-104 0 -165 68t-61 197q0 128 61 190.5t169 62.5q96 0 156.5 -51t66.5 -138h-131q-5 38 -30.5 59.5t-62.5 21.5q-100 0 -100 -142q0 -76 27.5 -117.5t68.5 -41.5q39 0 65.5 21.5t30.5 60.5zM395 648l-223 -94l-31 55l207 121z " />
<glyph unicode="&#x10a;" horiz-adv-x="608" d="M469 228h139q-21 -115 -96.5 -183t-189.5 -68q-136 0 -221.5 90.5t-85.5 256.5q0 168 83 265t226 97q121 0 197.5 -68t86.5 -172h-139q-14 55 -54 87.5t-90 32.5q-84 0 -126.5 -61.5t-42.5 -172.5q0 -112 41 -173t121 -61q121 0 151 130zM383 751h-130v124h130v-124z" />
<glyph unicode="&#x10b;" horiz-adv-x="476" d="M338 178h131q-10 -85 -73 -138t-153 -53q-104 0 -165 68t-61 197q0 128 61 190.5t169 62.5q96 0 156.5 -51t66.5 -138h-131q-5 38 -30.5 59.5t-62.5 21.5q-100 0 -100 -142q0 -76 27.5 -117.5t68.5 -41.5q39 0 65.5 21.5t30.5 60.5zM309 579h-130v124h130v-124z" />
<glyph unicode="&#x10c;" horiz-adv-x="608" d="M469 228h139q-21 -115 -96.5 -183t-189.5 -68q-136 0 -221.5 90.5t-85.5 256.5q0 168 83 265t226 97q121 0 197.5 -68t86.5 -172h-139q-14 55 -54 87.5t-90 32.5q-84 0 -126.5 -61.5t-42.5 -172.5q0 -112 41 -173t121 -61q121 0 151 130zM372 733h-106l-128 134l46 51 l135 -118l135 118l46 -51z" />
<glyph unicode="&#x10d;" horiz-adv-x="476" d="M338 178h131q-10 -85 -73 -138t-153 -53q-104 0 -165 68t-61 197q0 128 61 190.5t169 62.5q96 0 156.5 -51t66.5 -138h-131q-5 38 -30.5 59.5t-62.5 21.5q-100 0 -100 -142q0 -76 27.5 -117.5t68.5 -41.5q39 0 65.5 21.5t30.5 60.5zM291 561h-106l-128 134l46 51 l135 -118l135 118l46 -51z" />
<glyph unicode="&#x10e;" horiz-adv-x="602" d="M158 113h115q90 0 131.5 56t41.5 170q0 113 -42.5 161.5t-142.5 48.5h-103v-436zM301 0h-278v664h257q137 0 222.5 -88t85.5 -237q0 -152 -79 -245.5t-208 -93.5zM316 733h-106l-128 134l46 51l135 -118l135 118l46 -51z" />
<glyph unicode="&#x10f;" horiz-adv-x="656" d="M259 93q47 0 78.5 39.5t31.5 101.5q0 160 -109 160q-112 0 -112 -152q0 -66 31 -107.5t80 -41.5zM492 0h-125l-1 60q-45 -73 -137 -73q-95 0 -154 71t-59 193q0 114 54 184t148 70q91 0 146 -77v244h128v-672zM518 400v50q76 19 77 106h-77v135h138v-102 q0 -86 -30.5 -129.5t-107.5 -59.5z" />
<glyph unicode="&#x110;" horiz-adv-x="602" d="M301 0h-278v282h-23v99h23v283h257q137 0 222.5 -88t85.5 -237q0 -152 -79 -245.5t-208 -93.5zM158 113h115q90 0 131.5 56t41.5 170q0 113 -42.5 161.5t-142.5 48.5h-103v-168h107v-99h-107v-169z" />
<glyph unicode="&#x111;" horiz-adv-x="518" d="M492 0h-125l-1 60q-45 -73 -137 -73q-95 0 -154 71t-59 193q0 114 54 184t148 70q91 0 146 -77v105h-167v91h167v48h128v-48h26v-91h-26v-533zM259 93q47 0 78.5 39.5t31.5 101.5q0 160 -109 160q-112 0 -112 -152q0 -66 31 -107.5t80 -41.5z" />
<glyph unicode="&#x112;" horiz-adv-x="527" d="M527 0h-504v664h488v-116h-353v-142h325v-117h-325v-171h369v-118zM454 774h-381v91h381v-91z" />
<glyph unicode="&#x113;" d="M149 294h201q-1 52 -30.5 80t-70.5 28q-40 0 -68 -29t-32 -79zM484 212h-339q3 -56 32.5 -89t77.5 -33q32 0 56.5 15t31.5 40h134q-22 -75 -79.5 -116.5t-136.5 -41.5q-246 0 -246 268q0 115 63 182.5t175 67.5q231 0 231 -293zM439 602h-381v91h381v-91z" />
<glyph unicode="&#x114;" horiz-adv-x="527" d="M527 0h-504v664h488v-116h-353v-142h325v-117h-325v-171h369v-118zM343 918h82q0 -79 -47.5 -122.5t-114.5 -43.5t-114.5 43.5t-47.5 122.5h82q2 -41 22.5 -64t57.5 -23t57.5 23t22.5 64z" />
<glyph unicode="&#x115;" d="M149 294h201q-1 52 -30.5 80t-70.5 28q-40 0 -68 -29t-32 -79zM484 212h-339q3 -56 32.5 -89t77.5 -33q32 0 56.5 15t31.5 40h134q-22 -75 -79.5 -116.5t-136.5 -41.5q-246 0 -246 268q0 115 63 182.5t175 67.5q231 0 231 -293zM329 746h82q0 -79 -47.5 -122.5 t-114.5 -43.5t-114.5 43.5t-47.5 122.5h82q2 -41 22.5 -64t57.5 -23t57.5 23t22.5 64z" />
<glyph unicode="&#x116;" horiz-adv-x="527" d="M527 0h-504v664h488v-116h-353v-142h325v-117h-325v-171h369v-118zM338 751h-130v124h130v-124z" />
<glyph unicode="&#x117;" d="M149 294h201q-1 52 -30.5 80t-70.5 28q-40 0 -68 -29t-32 -79zM484 212h-339q3 -56 32.5 -89t77.5 -33q32 0 56.5 15t31.5 40h134q-22 -75 -79.5 -116.5t-136.5 -41.5q-246 0 -246 268q0 115 63 182.5t175 67.5q231 0 231 -293zM319 579h-130v124h130v-124z" />
<glyph unicode="&#x118;" horiz-adv-x="527" d="M527 -117v-90q-33 -26 -105 -26q-53 0 -81.5 22.5t-28.5 62.5q0 47 45.5 85t126.5 63h-461v664h488v-116h-353v-142h325v-117h-325v-171h369v-118q-72 -32 -92.5 -50.5t-20.5 -41.5q0 -33 64 -33q25 0 49 8z" />
<glyph unicode="&#x119;" d="M343 -117v-90q-33 -26 -105 -26q-53 0 -81.5 22.5t-28.5 62.5q0 83 134 135h-1q-246 0 -246 268q0 115 63 182.5t175 67.5q231 0 231 -293h-339q3 -56 32.5 -89t77.5 -33q32 0 56.5 15t31.5 40h134q-33 -110 -134 -145q-72 -32 -92.5 -50.5t-20.5 -41.5q0 -33 64 -33 q25 0 49 8zM149 294h201q-1 52 -30.5 80t-70.5 28q-40 0 -68 -29t-32 -79z" />
<glyph unicode="&#x11a;" horiz-adv-x="527" d="M527 0h-504v664h488v-116h-353v-142h325v-117h-325v-171h369v-118zM316 733h-106l-128 134l46 51l135 -118l135 118l46 -51z" />
<glyph unicode="&#x11b;" d="M149 294h201q-1 52 -30.5 80t-70.5 28q-40 0 -68 -29t-32 -79zM484 212h-339q3 -56 32.5 -89t77.5 -33q32 0 56.5 15t31.5 40h134q-22 -75 -79.5 -116.5t-136.5 -41.5q-246 0 -246 268q0 115 63 182.5t175 67.5q231 0 231 -293zM302 561h-106l-128 134l46 51l135 -118 l135 118l46 -51z" />
<glyph unicode="&#x11e;" horiz-adv-x="659" d="M633 0h-115l-3 66q-24 -42 -77 -65.5t-122 -23.5q-133 0 -217 105.5t-84 250.5q0 154 86 253.5t241 99.5q119 0 201 -64t89 -163h-140q-5 46 -49 79t-101 33q-85 0 -135 -64t-50 -180q0 -58 18.5 -109t61.5 -87.5t104 -36.5q68 0 115 44.5t47 107.5h-147v111h277v-357z M419 918h82q0 -79 -47.5 -122.5t-114.5 -43.5t-114.5 43.5t-47.5 122.5h82q2 -41 22.5 -64t57.5 -23t57.5 23t22.5 64z" />
<glyph unicode="&#x11f;" horiz-adv-x="525" d="M262 98q48 0 79.5 37.5t31.5 98.5q0 158 -111 158t-111 -150q0 -65 31 -104.5t80 -39.5zM369 -15v81q-13 -33 -49.5 -51.5t-85.5 -18.5q-113 0 -165.5 72.5t-52.5 180.5q0 113 62 184.5t153 71.5q92 0 138 -74v61h130v-497q0 -107 -69 -167.5t-176 -60.5 q-105 0 -171.5 56t-66.5 150h121q0 -44 29.5 -69t78.5 -25q53 0 88.5 29t35.5 77zM325 746h82q0 -79 -47.5 -122.5t-114.5 -43.5t-114.5 43.5t-47.5 122.5h82q2 -41 22.5 -64t57.5 -23t57.5 23t22.5 64z" />
<glyph unicode="&#x120;" horiz-adv-x="659" d="M633 0h-115l-3 66q-24 -42 -77 -65.5t-122 -23.5q-133 0 -217 105.5t-84 250.5q0 154 86 253.5t241 99.5q119 0 201 -64t89 -163h-140q-5 46 -49 79t-101 33q-85 0 -135 -64t-50 -180q0 -58 18.5 -109t61.5 -87.5t104 -36.5q68 0 115 44.5t47 107.5h-147v111h277v-357z M404 751h-130v124h130v-124z" />
<glyph unicode="&#x121;" horiz-adv-x="525" d="M262 98q48 0 79.5 37.5t31.5 98.5q0 158 -111 158t-111 -150q0 -65 31 -104.5t80 -39.5zM369 -15v81q-13 -33 -49.5 -51.5t-85.5 -18.5q-113 0 -165.5 72.5t-52.5 180.5q0 113 62 184.5t153 71.5q92 0 138 -74v61h130v-497q0 -107 -69 -167.5t-176 -60.5 q-105 0 -171.5 56t-66.5 150h121q0 -44 29.5 -69t78.5 -25q53 0 88.5 29t35.5 77zM315 579h-130v124h130v-124z" />
<glyph unicode="&#x122;" horiz-adv-x="659" d="M633 0h-115l-3 66q-24 -42 -77 -65.5t-122 -23.5q-133 0 -217 105.5t-84 250.5q0 154 86 253.5t241 99.5q119 0 201 -64t89 -163h-140q-5 46 -49 79t-101 33q-85 0 -135 -64t-50 -180q0 -58 18.5 -109t61.5 -87.5t104 -36.5q68 0 115 44.5t47 107.5h-147v111h277v-357z M272 -233v43q62 5 64 65h-64v82h115v-54q0 -126 -115 -136z" />
<glyph unicode="&#x123;" horiz-adv-x="525" d="M262 98q48 0 79.5 37.5t31.5 98.5q0 158 -111 158t-111 -150q0 -65 31 -104.5t80 -39.5zM369 -15v81q-13 -33 -49.5 -51.5t-85.5 -18.5q-113 0 -165.5 72.5t-52.5 180.5q0 113 62 184.5t153 71.5q92 0 138 -74v61h130v-497q0 -107 -69 -167.5t-176 -60.5 q-105 0 -171.5 56t-66.5 150h121q0 -44 29.5 -69t78.5 -25q53 0 88.5 29t35.5 77zM320 729v-43q-62 -5 -64 -65h64v-82h-115v54q0 126 115 136z" />
<glyph unicode="&#x126;" horiz-adv-x="582" d="M561 0h-140v298h-259v-298h-139v664h139v-80h259v80h140v-664zM162 414h259v79h-259v-79z" />
<glyph unicode="&#x127;" d="M321 538h-165v-110q14 33 55 55t90 22q77 0 124 -42t47 -115v-348h-131v305q0 54 -19.5 75.5t-64.5 21.5q-47 0 -74 -34t-27 -86v-282h-130v538h-26v91h26v43h130v-43h165v-91z" />
<glyph unicode="&#x128;" horiz-adv-x="184" d="M162 0h-139v664h139v-664zM190 873l75 -27q-30 -98 -109 -98q-26 0 -66.5 22.5t-61.5 22.5q-5 0 -11 -3t-14 -13.5t-14 -27.5l-69 37q28 88 97 88q33 0 75 -24t58 -24q11 0 23.5 11.5t16.5 35.5z" />
<glyph unicode="&#x129;" horiz-adv-x="268" d="M199 0h-130v492h130v-492zM232 701l75 -27q-30 -98 -109 -98q-26 0 -66.5 22.5t-61.5 22.5q-5 0 -11 -3t-14 -13.5t-14 -27.5l-69 37q28 88 97 88q33 0 75 -24t58 -24q11 0 23.5 11.5t16.5 35.5z" />
<glyph unicode="&#x12a;" horiz-adv-x="184" d="M162 0h-139v664h139v-664zM283 774h-381v91h381v-91z" />
<glyph unicode="&#x12b;" horiz-adv-x="268" d="M199 0h-130v492h130v-492zM325 602h-381v91h381v-91z" />
<glyph unicode="&#x12c;" horiz-adv-x="184" d="M162 0h-139v664h139v-664zM172 918h82q0 -79 -47.5 -122.5t-114.5 -43.5t-114.5 43.5t-47.5 122.5h82q2 -41 22.5 -64t57.5 -23t57.5 23t22.5 64z" />
<glyph unicode="&#x12d;" horiz-adv-x="268" d="M199 0h-130v492h130v-492zM214 746h82q0 -79 -47.5 -122.5t-114.5 -43.5t-114.5 43.5t-47.5 122.5h82q2 -41 22.5 -64t57.5 -23t57.5 23t22.5 64z" />
<glyph unicode="&#x12e;" horiz-adv-x="184" d="M162 -117v-90q-33 -26 -105 -26q-53 0 -81.5 22.5t-28.5 62.5q0 47 45.5 85t126.5 63h-96v664h139v-664q-72 -32 -92.5 -50.5t-20.5 -41.5q0 -33 64 -33q25 0 49 8z" />
<glyph unicode="&#x12f;" horiz-adv-x="188" d="M159 -117v-90q-33 -26 -105 -26q-53 0 -81.5 22.5t-28.5 62.5q0 47 45.5 85t126.5 63h-87v492h130v-492q-72 -32 -92.5 -50.5t-20.5 -41.5q0 -33 64 -33q25 0 49 8zM159 551h-130v121h130v-121z" />
<glyph unicode="&#x130;" horiz-adv-x="184" d="M162 0h-139v664h139v-664zM157 751h-130v124h130v-124z" />
<glyph unicode="&#x131;" horiz-adv-x="188" d="M159 0h-130v492h130v-492z" />
<glyph unicode="&#x132;" horiz-adv-x="633" d="M162 0h-139v664h139v-664zM472 192v472h139v-485q0 -93 -56.5 -147.5t-161.5 -54.5q-97 0 -151 52.5t-54 153.5v68h126v-61q0 -51 18.5 -75.5t60.5 -24.5q47 0 63 22.5t16 79.5z" />
<glyph unicode="&#x133;" horiz-adv-x="376" d="M159 0h-130v492h130v-492zM159 551h-130v121h130v-121zM219 -28v520h131v-525q0 -88 -55.5 -144t-138.5 -56q-99 0 -148.5 54t-49.5 152h122q0 -91 69 -91q70 0 70 90zM350 551h-131v121h131v-121z" />
<glyph unicode="&#x136;" horiz-adv-x="600" d="M600 0h-169l-197 299l-74 -73v-226h-137v664h137v-270l254 270h180l-262 -262zM252 -233v43q62 5 64 65h-64v82h115v-54q0 -126 -115 -136z" />
<glyph unicode="&#x137;" horiz-adv-x="478" d="M474 0h-146l-108 221l-63 -65v-156h-131v672h131v-367l162 187h159l-165 -181zM191 -233v43q62 5 64 65h-64v82h115v-54q0 -126 -115 -136z" />
<glyph unicode="&#x139;" horiz-adv-x="496" d="M491 0h-468v664h139v-543h329v-121zM255 820l-223 -94l-31 55l207 121z" />
<glyph unicode="&#x13a;" horiz-adv-x="181" d="M156 0h-130v672h130v-672zM248 820l-223 -94l-31 55l207 121z" />
<glyph unicode="&#x13b;" horiz-adv-x="496" d="M491 0h-468v664h139v-543h329v-121zM200 -233v43q62 5 64 65h-64v82h115v-54q0 -126 -115 -136z" />
<glyph unicode="&#x13c;" horiz-adv-x="181" d="M156 0h-130v672h130v-672zM33 -233v43q62 5 64 65h-64v82h115v-54q0 -126 -115 -136z" />
<glyph unicode="&#x13d;" horiz-adv-x="496" d="M491 0h-468v664h139v-543h329v-121zM198 400v50q76 19 77 106h-77v135h138v-102q0 -86 -30.5 -129.5t-107.5 -59.5z" />
<glyph unicode="&#x13e;" horiz-adv-x="319" d="M156 0h-130v672h130v-672zM181 400v50q76 19 77 106h-77v135h138v-102q0 -86 -30.5 -129.5t-107.5 -59.5z" />
<glyph unicode="&#x13f;" horiz-adv-x="496" d="M491 0h-468v664h139v-543h329v-121zM320 313h-130v124h130v-124z" />
<glyph unicode="&#x140;" horiz-adv-x="311" d="M156 0h-130v672h130v-672zM311 279h-130v124h130v-124z" />
<glyph unicode="&#x141;" horiz-adv-x="496" d="M491 0h-468v664h139v-287l141 63v-89l-141 -63v-167h329v-121z" />
<glyph unicode="&#x142;" horiz-adv-x="255" d="M192 0h-130v266l-62 -27v88l62 27v318h130v-261l63 29v-89l-63 -28v-323z" />
<glyph unicode="&#x143;" horiz-adv-x="586" d="M564 0h-128l-284 446v-446h-129v664h147l264 -427v427h130v-664zM450 820l-223 -94l-31 55l207 121z" />
<glyph unicode="&#x144;" d="M472 0h-131v298q0 56 -18.5 76.5t-65.5 20.5q-101 0 -101 -113v-282h-130v492h124v-72q46 85 159 85q73 0 118 -43t45 -121v-341zM406 648l-223 -94l-31 55l207 121z" />
<glyph unicode="&#x145;" horiz-adv-x="586" d="M564 0h-128l-284 446v-446h-129v664h147l264 -427v427h130v-664zM245 -233v43q62 5 64 65h-64v82h115v-54q0 -126 -115 -136z" />
<glyph unicode="&#x146;" d="M472 0h-131v298q0 56 -18.5 76.5t-65.5 20.5q-101 0 -101 -113v-282h-130v492h124v-72q46 85 159 85q73 0 118 -43t45 -121v-341zM201 -233v43q62 5 64 65h-64v82h115v-54q0 -126 -115 -136z" />
<glyph unicode="&#x147;" horiz-adv-x="586" d="M564 0h-128l-284 446v-446h-129v664h147l264 -427v427h130v-664zM346 733h-106l-128 134l46 51l135 -118l135 118l46 -51z" />
<glyph unicode="&#x148;" d="M472 0h-131v298q0 56 -18.5 76.5t-65.5 20.5q-101 0 -101 -113v-282h-130v492h124v-72q46 85 159 85q73 0 118 -43t45 -121v-341zM312 561h-106l-128 134l46 51l135 -118l135 118l46 -51z" />
<glyph unicode="&#x14a;" horiz-adv-x="586" d="M434 -28v31l-282 443v-446h-129v664h147l264 -427v427h130v-697q0 -88 -55.5 -144t-138.5 -56q-5 0 -12.5 0.5t-11.5 0.5v116q10 -2 17 -2q71 0 71 90z" />
<glyph unicode="&#x14b;" d="M341 -28v337q-1 49 -20 67.5t-64 18.5q-101 0 -101 -113v-282h-130v492h124v-72q46 85 159 85q73 0 118 -43t45 -121v-374q0 -88 -55.5 -144t-138.5 -56q-4 0 -11.5 0.5t-10.5 0.5v115q2 0 7 -0.5t8 -0.5q70 0 70 90z" />
<glyph unicode="&#x14c;" horiz-adv-x="666" d="M334 96q80 0 130 57.5t50 169.5q0 117 -46.5 178.5t-133.5 61.5q-88 0 -135 -61.5t-47 -178.5q0 -227 182 -227zM334 -23q-153 0 -236 90.5t-83 258.5q0 170 83.5 265t235.5 95t234.5 -95.5t82.5 -267.5q0 -170 -81.5 -258t-235.5 -88zM523 774h-381v91h381v-91z" />
<glyph unicode="&#x14d;" horiz-adv-x="534" d="M268 96q119 0 119 150q0 149 -119 149t-119 -149q0 -150 119 -150zM268 -13q-118 0 -185.5 71t-67.5 188q0 118 68.5 188.5t184.5 70.5q115 0 182.5 -70.5t67.5 -188.5q0 -117 -68 -188t-182 -71zM457 602h-381v91h381v-91z" />
<glyph unicode="&#x14e;" horiz-adv-x="666" d="M334 96q80 0 130 57.5t50 169.5q0 117 -46.5 178.5t-133.5 61.5q-88 0 -135 -61.5t-47 -178.5q0 -227 182 -227zM334 -23q-153 0 -236 90.5t-83 258.5q0 170 83.5 265t235.5 95t234.5 -95.5t82.5 -267.5q0 -170 -81.5 -258t-235.5 -88zM413 918h82q0 -79 -47.5 -122.5 t-114.5 -43.5t-114.5 43.5t-47.5 122.5h82q2 -41 22.5 -64t57.5 -23t57.5 23t22.5 64z" />
<glyph unicode="&#x14f;" horiz-adv-x="534" d="M268 96q119 0 119 150q0 149 -119 149t-119 -149q0 -150 119 -150zM268 -13q-118 0 -185.5 71t-67.5 188q0 118 68.5 188.5t184.5 70.5q115 0 182.5 -70.5t67.5 -188.5q0 -117 -68 -188t-182 -71zM347 746h82q0 -79 -47.5 -122.5t-114.5 -43.5t-114.5 43.5t-47.5 122.5 h82q2 -41 22.5 -64t57.5 -23t57.5 23t22.5 64z" />
<glyph unicode="&#x150;" horiz-adv-x="666" d="M334 96q80 0 130 57.5t50 169.5q0 117 -46.5 178.5t-133.5 61.5q-88 0 -135 -61.5t-47 -178.5q0 -227 182 -227zM334 -23q-153 0 -236 90.5t-83 258.5q0 170 83.5 265t235.5 95t234.5 -95.5t82.5 -267.5q0 -170 -81.5 -258t-235.5 -88zM246 741l-37 33l136 147l44 -37z M516 881l-150 -140l-37 33l142 144z" />
<glyph unicode="&#x151;" horiz-adv-x="534" d="M268 96q119 0 119 150q0 149 -119 149t-119 -149q0 -150 119 -150zM268 -13q-118 0 -185.5 71t-67.5 188q0 118 68.5 188.5t184.5 70.5q115 0 182.5 -70.5t67.5 -188.5q0 -117 -68 -188t-182 -71zM190 569l-37 33l136 147l44 -37zM460 709l-150 -140l-37 33l142 144z" />
<glyph unicode="&#x152;" horiz-adv-x="1021" d="M1021 0h-505v24q-74 -47 -174 -47q-157 0 -242 98.5t-85 273.5q0 149 88.5 243t231.5 94q99 0 181 -55v33h488v-116h-353v-142h325v-117h-325v-171h370v-118zM345 96q75 0 122 62.5t47 161.5q0 243 -184 243q-81 0 -129.5 -62.5t-48.5 -160.5q0 -104 54 -174t139 -70z " />
<glyph unicode="&#x153;" horiz-adv-x="860" d="M846 212h-339q3 -56 32.5 -89t77.5 -33q32 0 56.5 15t31.5 40h134q-22 -75 -79.5 -116.5t-136.5 -41.5q-120 0 -181 63q-66 -63 -174 -63q-118 0 -185.5 71t-67.5 188q0 118 68.5 188.5t184.5 70.5q108 0 175 -64q64 64 172 64q231 0 231 -293zM268 96q119 0 119 150 q0 149 -119 149t-119 -149q0 -150 119 -150zM511 294h201q-1 52 -30.5 80t-70.5 28q-40 0 -68 -29t-32 -79z" />
<glyph unicode="&#x154;" horiz-adv-x="573" d="M337 549h-179v-177h174q102 0 102 88q0 89 -97 89zM546 0h-136v171q0 49 -22.5 69t-81.5 20h-148v-260h-135v664h337q91 0 147.5 -54t56.5 -138q0 -54 -26 -95.5t-73 -58.5q45 -14 63 -43t18 -87v-188zM443 820l-223 -94l-31 55l207 121z" />
<glyph unicode="&#x155;" horiz-adv-x="315" d="M156 0h-130v492h122v-59q29 45 63.5 58.5t82.5 13.5h17v-133q-18 3 -36 3q-119 0 -119 -119v-256zM314 648l-223 -94l-31 55l207 121z" />
<glyph unicode="&#x156;" horiz-adv-x="573" d="M337 549h-179v-177h174q102 0 102 88q0 89 -97 89zM546 0h-136v171q0 49 -22.5 69t-81.5 20h-148v-260h-135v664h337q91 0 147.5 -54t56.5 -138q0 -54 -26 -95.5t-73 -58.5q45 -14 63 -43t18 -87v-188zM229 -233v43q62 5 64 65h-64v82h115v-54q0 -126 -115 -136z" />
<glyph unicode="&#x157;" horiz-adv-x="315" d="M156 0h-130v492h122v-59q29 45 63.5 58.5t82.5 13.5h17v-133q-18 3 -36 3q-119 0 -119 -119v-256zM38 -233v43q62 5 64 65h-64v82h115v-54q0 -126 -115 -136z" />
<glyph unicode="&#x158;" horiz-adv-x="573" d="M337 549h-179v-177h174q102 0 102 88q0 89 -97 89zM546 0h-136v171q0 49 -22.5 69t-81.5 20h-148v-260h-135v664h337q91 0 147.5 -54t56.5 -138q0 -54 -26 -95.5t-73 -58.5q45 -14 63 -43t18 -87v-188zM329 733h-106l-128 134l46 51l135 -118l135 118l46 -51z" />
<glyph unicode="&#x159;" horiz-adv-x="315" d="M156 0h-130v492h122v-59q29 45 63.5 58.5t82.5 13.5h17v-133q-18 3 -36 3q-119 0 -119 -119v-256zM211 561h-106l-128 134l46 51l135 -118l135 118l46 -51z" />
<glyph unicode="&#x15a;" horiz-adv-x="558" d="M531 468h-132q-10 101 -133 101q-118 0 -118 -81q0 -57 103 -81q135 -32 197 -58q50 -21 77 -59.5t27 -112.5q0 -92 -72 -146t-179 -54q-287 0 -295 222h134q1 -50 41 -80t102 -30q64 0 99 24t35 65q0 35 -21.5 55.5t-81.5 33.5q-166 35 -229.5 78t-63.5 144 q0 87 63.5 142t181.5 55q119 0 190 -59.5t75 -158.5zM436 820l-223 -94l-31 55l207 121z" />
<glyph unicode="&#x15b;" horiz-adv-x="467" d="M447 343h-125q-5 34 -25.5 49.5t-62.5 15.5q-81 0 -81 -42q0 -19 19 -31.5t61 -23.5q9 -2 25 -7q121 -33 153 -53q46 -28 49 -93l1 -18q0 -68 -57 -110.5t-161 -42.5q-106 0 -169 46.5t-65 124.5h134q0 -34 27.5 -53.5t71.5 -19.5q39 0 64.5 12t25.5 35q0 26 -18 38 t-61 22q-136 30 -181 68.5t-45 105.5q0 61 51.5 100t159.5 39q199 0 209 -162zM390 648l-223 -94l-31 55l207 121z" />
<glyph unicode="&#x15e;" horiz-adv-x="558" d="M531 468h-132q-10 101 -133 101q-118 0 -118 -81q0 -57 103 -81q135 -32 197 -58q50 -21 77 -59.5t27 -112.5q0 -92 -72 -146t-179 -54q-287 0 -295 222h134q1 -50 41 -80t102 -30q64 0 99 24t35 65q0 35 -21.5 55.5t-81.5 33.5q-166 35 -229.5 78t-63.5 144 q0 87 63.5 142t181.5 55q119 0 190 -59.5t75 -158.5zM231 -233v43q62 5 64 65h-64v82h115v-54q0 -126 -115 -136z" />
<glyph unicode="&#x15f;" horiz-adv-x="467" d="M447 343h-125q-5 34 -25.5 49.5t-62.5 15.5q-81 0 -81 -42q0 -19 19 -31.5t61 -23.5q9 -2 25 -7q121 -33 153 -53q46 -28 49 -93l1 -18q0 -68 -57 -110.5t-161 -42.5q-106 0 -169 46.5t-65 124.5h134q0 -34 27.5 -53.5t71.5 -19.5q39 0 64.5 12t25.5 35q0 26 -18 38 t-61 22q-136 30 -181 68.5t-45 105.5q0 61 51.5 100t159.5 39q199 0 209 -162zM186 -233v43q62 5 64 65h-64v82h115v-54q0 -126 -115 -136z" />
<glyph unicode="&#x160;" horiz-adv-x="558" d="M531 468h-132q-10 101 -133 101q-118 0 -118 -81q0 -57 103 -81q135 -32 197 -58q50 -21 77 -59.5t27 -112.5q0 -92 -72 -146t-179 -54q-287 0 -295 222h134q1 -50 41 -80t102 -30q64 0 99 24t35 65q0 35 -21.5 55.5t-81.5 33.5q-166 35 -229.5 78t-63.5 144 q0 87 63.5 142t181.5 55q119 0 190 -59.5t75 -158.5zM332 733h-106l-128 134l46 51l135 -118l135 118l46 -51z" />
<glyph unicode="&#x161;" horiz-adv-x="467" d="M447 343h-125q-5 34 -25.5 49.5t-62.5 15.5q-81 0 -81 -42q0 -19 19 -31.5t61 -23.5q9 -2 25 -7q121 -33 153 -53q46 -28 49 -93l1 -18q0 -68 -57 -110.5t-161 -42.5q-106 0 -169 46.5t-65 124.5h134q0 -34 27.5 -53.5t71.5 -19.5q39 0 64.5 12t25.5 35q0 26 -18 38 t-61 22q-136 30 -181 68.5t-45 105.5q0 61 51.5 100t159.5 39q199 0 209 -162zM286 561h-106l-128 134l46 51l135 -118l135 118l46 -51z" />
<glyph unicode="&#x162;" horiz-adv-x="549" d="M343 0h-139v548h-200v116h540v-116h-201v-548zM217 -233v43q62 5 64 65h-64v82h115v-54q0 -126 -115 -136z" />
<glyph unicode="&#x163;" horiz-adv-x="447" d="M305 196v128h121v-140q0 -84 -50.5 -140.5t-148.5 -56.5q-102 0 -151.5 56t-49.5 142v440h128v-133h272v-92h-272v-202q0 -98 75 -98q76 0 76 96zM166 -233v43q62 5 64 65h-64v82h115v-54q0 -126 -115 -136z" />
<glyph unicode="&#x164;" horiz-adv-x="549" d="M343 0h-139v548h-200v116h540v-116h-201v-548zM327 733h-106l-128 134l46 51l135 -118l135 118l46 -51z" />
<glyph unicode="&#x165;" horiz-adv-x="585" d="M305 196v128h121v-140q0 -84 -50.5 -140.5t-148.5 -56.5q-102 0 -151.5 56t-49.5 142v440h128v-133h272v-92h-272v-202q0 -98 75 -98q76 0 76 96zM447 400v50q76 19 77 106h-77v135h138v-102q0 -86 -30.5 -129.5t-107.5 -59.5z" />
<glyph unicode="&#x166;" horiz-adv-x="549" d="M343 0h-139v248h-94v101h94v199h-200v116h540v-116h-201v-199h95v-101h-95v-248z" />
<glyph unicode="&#x167;" horiz-adv-x="447" d="M419 261h-265v-63q0 -98 75 -98q76 0 76 96v18h121v-30q0 -84 -50.5 -140.5t-148.5 -56.5q-102 0 -151.5 56t-49.5 142v440h128v-133h272v-92h-272v-52h265v-87z" />
<glyph unicode="&#x168;" horiz-adv-x="581" d="M416 221v443h142v-443q0 -120 -70.5 -182t-202.5 -62q-124 0 -193 59.5t-69 176.5v451h141v-438q0 -62 31.5 -98t87.5 -36q133 0 133 129zM388 873l75 -27q-30 -98 -109 -98q-26 0 -67 22.5t-61 22.5q-5 0 -11 -3t-14 -13.5t-14 -27.5l-69 37q28 88 97 88q33 0 75 -24 t58 -24q11 0 23.5 11.5t16.5 35.5z" />
<glyph unicode="&#x169;" horiz-adv-x="495" d="M469 0h-123v69q-50 -82 -153 -82q-74 0 -120.5 50t-46.5 131v324h130v-304q0 -92 83 -92q48 0 74.5 31t26.5 81v284h129v-492zM345 701l75 -27q-30 -98 -109 -98q-27 0 -67 22.5t-61 22.5q-5 0 -11 -3t-14 -13.5t-14 -27.5l-69 37q28 88 97 88q33 0 75 -24t58 -24 q11 0 23.5 11.5t16.5 35.5z" />
<glyph unicode="&#x16a;" horiz-adv-x="581" d="M416 221v443h142v-443q0 -120 -70.5 -182t-202.5 -62q-124 0 -193 59.5t-69 176.5v451h141v-438q0 -62 31.5 -98t87.5 -36q133 0 133 129zM481 774h-381v91h381v-91z" />
<glyph unicode="&#x16b;" horiz-adv-x="495" d="M469 0h-123v69q-50 -82 -153 -82q-74 0 -120.5 50t-46.5 131v324h130v-304q0 -92 83 -92q48 0 74.5 31t26.5 81v284h129v-492zM438 602h-381v91h381v-91z" />
<glyph unicode="&#x16c;" horiz-adv-x="581" d="M416 221v443h142v-443q0 -120 -70.5 -182t-202.5 -62q-124 0 -193 59.5t-69 176.5v451h141v-438q0 -62 31.5 -98t87.5 -36q133 0 133 129zM370 918h82q0 -79 -47.5 -122.5t-114.5 -43.5t-114.5 43.5t-47.5 122.5h82q2 -41 22.5 -64t57.5 -23t57.5 23t22.5 64z" />
<glyph unicode="&#x16d;" horiz-adv-x="495" d="M469 0h-123v69q-50 -82 -153 -82q-74 0 -120.5 50t-46.5 131v324h130v-304q0 -92 83 -92q48 0 74.5 31t26.5 81v284h129v-492zM337 746h82q0 -79 -47.5 -122.5t-114.5 -43.5t-114.5 43.5t-47.5 122.5h82q2 -41 22.5 -64t57.5 -23t57.5 23t22.5 64z" />
<glyph unicode="&#x16e;" horiz-adv-x="581" d="M416 221v443h142v-443q0 -120 -70.5 -182t-202.5 -62q-124 0 -193 59.5t-69 176.5v451h141v-438q0 -62 31.5 -98t87.5 -36q133 0 133 129zM394 822q0 -96 -104 -96t-104 96t104 96t104 -96zM342 822q0 51 -52 51q-50 0 -50 -51q0 -49 50 -49q52 0 52 49z" />
<glyph unicode="&#x16f;" horiz-adv-x="495" d="M469 0h-123v69q-50 -82 -153 -82q-74 0 -120.5 50t-46.5 131v324h130v-304q0 -92 83 -92q48 0 74.5 31t26.5 81v284h129v-492zM361 650q0 -96 -104 -96t-104 96t104 96t104 -96zM309 650q0 51 -52 51q-50 0 -50 -51q0 -49 50 -49q52 0 52 49z" />
<glyph unicode="&#x170;" horiz-adv-x="581" d="M416 221v443h142v-443q0 -120 -70.5 -182t-202.5 -62q-124 0 -193 59.5t-69 176.5v451h141v-438q0 -62 31.5 -98t87.5 -36q133 0 133 129zM204 741l-37 33l136 147l44 -37zM474 881l-150 -140l-37 33l142 144z" />
<glyph unicode="&#x171;" horiz-adv-x="495" d="M469 0h-123v69q-50 -82 -153 -82q-74 0 -120.5 50t-46.5 131v324h130v-304q0 -92 83 -92q48 0 74.5 31t26.5 81v284h129v-492zM171 569l-37 33l136 147l44 -37zM441 709l-150 -140l-37 33l142 144z" />
<glyph unicode="&#x172;" horiz-adv-x="581" d="M422 -117v-90q-33 -26 -105 -26q-53 0 -81.5 22.5t-28.5 62.5q0 75 113 127q-22 -2 -35 -2q-124 0 -193 59.5t-69 176.5v451h141v-438q0 -62 31.5 -98t87.5 -36q133 0 133 129v443h142v-443q0 -169 -139 -222q-70 -32 -90 -50t-20 -41q0 -33 64 -33q25 0 49 8z" />
<glyph unicode="&#x173;" horiz-adv-x="495" d="M469 -117v-90q-33 -26 -105 -26q-53 0 -81.5 22.5t-28.5 62.5q0 47 45.5 85t126.5 63h-80v69q-50 -82 -153 -82q-74 0 -120.5 50t-46.5 131v324h130v-304q0 -92 83 -92q48 0 74.5 31t26.5 81v284h129v-492q-72 -32 -92.5 -50.5t-20.5 -41.5q0 -33 64 -33q25 0 49 8z" />
<glyph unicode="&#x174;" horiz-adv-x="852" d="M663 0h-134l-103 432l-105 -432h-130l-188 664h148l109 -430l92 430h146l101 -430l108 430h142zM561 733l-135 118l-135 -118l-46 51l128 134h106l128 -134z" />
<glyph unicode="&#x175;" horiz-adv-x="710" d="M565 0h-133l-78 286l-78 -286h-133l-140 492h137l80 -316l68 316h132l77 -316l75 316h134zM490 561l-135 118l-135 -118l-46 51l128 134h106l128 -134z" />
<glyph unicode="&#x176;" horiz-adv-x="597" d="M372 0h-139v251l-230 413h162l140 -270l129 270h160l-222 -415v-249zM441 733l-135 118l-135 -118l-46 51l128 134h106l128 -134z" />
<glyph unicode="&#x177;" horiz-adv-x="495" d="M339 -15v80q-13 -32 -49.5 -51t-83.5 -19q-78 0 -129 49t-51 129v319h130v-300q0 -92 83 -92q44 0 72 26t28 66v300h130v-505q0 -101 -64 -160.5t-162 -59.5q-106 0 -161.5 54.5t-55.5 151.5h121q0 -44 26 -69t76 -25q37 0 63.5 29.5t26.5 76.5zM382 561l-135 118 l-135 -118l-46 51l128 134h106l128 -134z" />
<glyph unicode="&#x178;" horiz-adv-x="597" d="M372 0h-139v251l-230 413h162l140 -270l129 270h160l-222 -415v-249zM272 751h-130v124h130v-124zM472 751h-130v124h130v-124z" />
<glyph unicode="&#x179;" horiz-adv-x="527" d="M523 0h-519v118l345 430h-335v116h509v-109l-347 -437h347v-118zM420 820l-223 -94l-31 55l207 121z" />
<glyph unicode="&#x17a;" horiz-adv-x="440" d="M433 0h-424v100l251 289h-234v103h400v-105l-251 -281h258v-106zM377 648l-223 -94l-31 55l207 121z" />
<glyph unicode="&#x17b;" horiz-adv-x="527" d="M523 0h-519v118l345 430h-335v116h509v-109l-347 -437h347v-118zM328 751h-130v124h130v-124z" />
<glyph unicode="&#x17c;" horiz-adv-x="440" d="M433 0h-424v100l251 289h-234v103h400v-105l-251 -281h258v-106zM285 579h-130v124h130v-124z" />
<glyph unicode="&#x17d;" horiz-adv-x="527" d="M523 0h-519v118l345 430h-335v116h509v-109l-347 -437h347v-118zM316 733h-106l-128 134l46 51l135 -118l135 118l46 -51z" />
<glyph unicode="&#x17e;" horiz-adv-x="440" d="M433 0h-424v100l251 289h-234v103h400v-105l-251 -281h258v-106zM273 561h-106l-128 134l46 51l135 -118l135 118l46 -51z" />
<glyph unicode="&#x192;" horiz-adv-x="532" d="M78 -173h-56v112h72q54 0 65 80l50 345h-70v101h84l4 24q27 183 226 183h57v-112h-73q-54 0 -65 -80l-2 -15h87v-101h-102l-51 -354q-27 -183 -226 -183z" />
<glyph unicode="&#x1a0;" horiz-adv-x="765" d="M682 702h70q21 -24 21 -78q0 -107 -92 -107q-35 0 -74 15q44 -85 44 -209q0 -170 -81.5 -258t-235.5 -88q-153 0 -236 90.5t-83 258.5q0 170 83.5 265t235.5 95q126 0 206 -68q41 -35 103 -35q48 0 48 63q0 34 -9 56zM334 96q80 0 130 57.5t50 169.5q0 117 -46.5 178.5 t-133.5 61.5q-88 0 -135 -61.5t-47 -178.5q0 -227 182 -227z" />
<glyph unicode="&#x1a1;" horiz-adv-x="647" d="M564 543h70q21 -24 21 -78q0 -44 -19.5 -75.5t-60.5 -31.5q-49 0 -83 14q26 -55 26 -126q0 -117 -68 -188t-182 -71q-118 0 -185.5 71t-67.5 188q0 118 68.5 188.5t184.5 70.5q91 0 154 -46q48 -35 103 -35q48 0 48 63q0 34 -9 56zM268 96q119 0 119 150q0 149 -119 149 t-119 -149q0 -150 119 -150z" />
<glyph unicode="&#x1af;" horiz-adv-x="743" d="M416 221v443h142v-73q24 -8 55 -8q48 0 48 63q0 34 -9 56h70q21 -24 21 -78t-25.5 -81t-68.5 -27q-44 0 -91 26v-321q0 -120 -70.5 -182t-202.5 -62q-124 0 -193 59.5t-69 176.5v451h141v-438q0 -62 31.5 -98t87.5 -36q133 0 133 129z" />
<glyph unicode="&#x1b0;" horiz-adv-x="633" d="M469 0h-123v69q-50 -82 -153 -82q-74 0 -120.5 50t-46.5 131v324h130v-304q0 -92 83 -92q48 0 74.5 31t26.5 81v284h129v-64q19 -4 42 -4q48 0 48 63q0 34 -9 56h70q21 -24 21 -78t-25 -80.5t-68 -26.5q-37 0 -79 18v-376z" />
<glyph unicode="&#x218;" horiz-adv-x="558" d="M531 468h-132q-10 101 -133 101q-118 0 -118 -81q0 -57 103 -81q135 -32 197 -58q50 -21 77 -59.5t27 -112.5q0 -92 -72 -146t-179 -54q-287 0 -295 222h134q1 -50 41 -80t102 -30q64 0 99 24t35 65q0 35 -21.5 55.5t-81.5 33.5q-166 35 -229.5 78t-63.5 144 q0 87 63.5 142t181.5 55q119 0 190 -59.5t75 -158.5zM221 -233v43q62 5 64 65h-64v82h115v-54q0 -126 -115 -136z" />
<glyph unicode="&#x219;" horiz-adv-x="467" d="M447 343h-125q-5 34 -25.5 49.5t-62.5 15.5q-81 0 -81 -42q0 -19 19 -31.5t61 -23.5q9 -2 25 -7q121 -33 153 -53q46 -28 49 -93l1 -18q0 -68 -57 -110.5t-161 -42.5q-106 0 -169 46.5t-65 124.5h134q0 -34 27.5 -53.5t71.5 -19.5q39 0 64.5 12t25.5 35q0 26 -18 38 t-61 22q-136 30 -181 68.5t-45 105.5q0 61 51.5 100t159.5 39q199 0 209 -162zM184 -233v43q62 5 64 65h-64v82h115v-54q0 -126 -115 -136z" />
<glyph unicode="&#x21a;" horiz-adv-x="549" d="M343 0h-139v548h-200v116h540v-116h-201v-548zM217 -233v43q62 5 64 65h-64v82h115v-54q0 -126 -115 -136z" />
<glyph unicode="&#x21b;" horiz-adv-x="447" d="M305 196v128h121v-140q0 -84 -50.5 -140.5t-148.5 -56.5q-102 0 -151.5 56t-49.5 142v440h128v-133h272v-92h-272v-202q0 -98 75 -98q76 0 76 96zM166 -233v43q62 5 64 65h-64v82h115v-54q0 -126 -115 -136z" />
<glyph unicode="&#x2c6;" horiz-adv-x="462" d="M366 561l-135 118l-135 -118l-46 51l128 134h106l128 -134z" />
<glyph unicode="&#x2c7;" horiz-adv-x="462" d="M284 561h-106l-128 134l46 51l135 -118l135 118l46 -51z" />
<glyph unicode="&#x2c9;" horiz-adv-x="481" d="M431 602h-381v91h381v-91z" />
<glyph unicode="&#x2d8;" horiz-adv-x="424" d="M292 746h82q0 -79 -47.5 -122.5t-114.5 -43.5t-114.5 43.5t-47.5 122.5h82q2 -41 22.5 -64t57.5 -23t57.5 23t22.5 64z" />
<glyph unicode="&#x2d9;" horiz-adv-x="230" d="M180 579h-130v124h130v-124z" />
<glyph unicode="&#x2da;" horiz-adv-x="308" d="M258 650q0 -96 -104 -96t-104 96t104 96t104 -96zM206 650q0 51 -52 51q-50 0 -50 -51q0 -49 50 -49q52 0 52 49z" />
<glyph unicode="&#x2db;" horiz-adv-x="315" d="M265 -117v-90q-33 -26 -105 -26q-53 0 -81.5 22.5t-28.5 62.5q0 47 45.5 85t126.5 63h43q-72 -32 -92.5 -50.5t-20.5 -41.5q0 -33 64 -33q25 0 49 8z" />
<glyph unicode="&#x2dc;" horiz-adv-x="445" d="M320 701l75 -27q-30 -98 -109 -98q-26 0 -67 22.5t-61 22.5q-5 0 -11 -3t-14 -13.5t-14 -27.5l-69 37q28 88 97 88q33 0 75 -24t58 -24q11 0 23.5 11.5t16.5 35.5z" />
<glyph unicode="&#x2dd;" horiz-adv-x="407" d="M87 569l-37 33l136 147l44 -37zM357 709l-150 -140l-37 33l142 144z" />
<glyph unicode="&#x303;" horiz-adv-x="372" d="M264 746l51 -14q-15 -61 -78 -61q-18 0 -53.5 10t-46.5 10q-16 0 -28 -32l-49 20q17 63 70 63q25 0 58 -11.5t48 -11.5q23 0 28 27zM322 584l-34 -30l-102 70l-101 -70l-35 30l96 80h80z" />
<glyph unicode="&#x309;" horiz-adv-x="244" d="M135 581h-50q0 38 25 53q23 13 23 30t-24 17q-20 0 -41 -15l-18 55q29 25 70 25q34 0 54 -16.5t20 -44.5q0 -24 -15 -40t-29.5 -30.5t-14.5 -33.5z" />
<glyph unicode="&#x323;" horiz-adv-x="230" d="M180 -206h-130v124h130v-124z" />
<glyph unicode="&#x37e;" horiz-adv-x="154" d="M10 -156v50q76 19 77 106h-77v135h138v-102q0 -86 -30.5 -129.5t-107.5 -59.5zM148 339h-138v134h138v-134z" />
<glyph unicode="&#x394;" horiz-adv-x="638" d="M635 0h-632l237 664h161zM318 515l-131 -401h260l-128 401h-1z" />
<glyph unicode="&#x3a9;" horiz-adv-x="646" d="M622 0h-239v100q101 96 101 293q0 182 -161 182q-160 0 -160 -182q0 -184 100 -293v-100h-239v110h99q-47 36 -79 113t-32 171q0 139 77.5 215.5t233.5 76.5q157 0 234 -76t77 -216q0 -94 -32 -171t-79 -113h99v-110z" />
<glyph unicode="&#x3bc;" horiz-adv-x="495" d="M469 0h-123v69q-50 -82 -153 -82q-15 0 -37 4v-224h-130v725h130v-304q0 -92 83 -92q48 0 74.5 31t26.5 81v284h129v-492z" />
<glyph unicode="&#x3c0;" horiz-adv-x="563" d="M480 0h-129v372h-142v-372h-129v372h-67v120h537v-120h-70v-372z" />
<glyph unicode="&#x1e80;" horiz-adv-x="852" d="M663 0h-134l-103 432l-105 -432h-130l-188 664h148l109 -430l92 430h146l101 -430l108 430h142zM492 726l-223 94l47 82l207 -121z" />
<glyph unicode="&#x1e81;" horiz-adv-x="710" d="M565 0h-133l-78 286l-78 -286h-133l-140 492h137l80 -316l68 316h132l77 -316l75 316h134zM421 554l-223 94l47 82l207 -121z" />
<glyph unicode="&#x1e82;" horiz-adv-x="852" d="M663 0h-134l-103 432l-105 -432h-130l-188 664h148l109 -430l92 430h146l101 -430l108 430h142zM583 820l-223 -94l-31 55l207 121z" />
<glyph unicode="&#x1e83;" horiz-adv-x="710" d="M565 0h-133l-78 286l-78 -286h-133l-140 492h137l80 -316l68 316h132l77 -316l75 316h134zM512 648l-223 -94l-31 55l207 121z" />
<glyph unicode="&#x1e84;" horiz-adv-x="852" d="M663 0h-134l-103 432l-105 -432h-130l-188 664h148l109 -430l92 430h146l101 -430l108 430h142zM391 751h-130v124h130v-124zM591 751h-130v124h130v-124z" />
<glyph unicode="&#x1e85;" horiz-adv-x="710" d="M565 0h-133l-78 286l-78 -286h-133l-140 492h137l80 -316l68 316h132l77 -316l75 316h134zM320 579h-130v124h130v-124zM520 579h-130v124h130v-124z" />
<glyph unicode="&#x1ea0;" horiz-adv-x="638" d="M402 251l-83 264h-1l-85 -264h169zM635 0h-151l-42 137h-245l-47 -137h-147l237 664h161zM384 -206h-130v124h130v-124z" />
<glyph unicode="&#x1ea1;" horiz-adv-x="481" d="M324 187l1 54q-16 -16 -84 -29q-55 -10 -76.5 -27.5t-21.5 -49.5q0 -55 63 -55q50 0 83.5 31.5t34.5 75.5zM455 0h-121q-6 19 -8 44q-52 -57 -149 -57q-81 0 -122.5 36.5t-41.5 98.5q0 41 12 71t28.5 47t50.5 29t60 17t75 12q48 7 65.5 18.5t17.5 37.5q0 24 -22.5 37.5 t-60.5 13.5q-79 0 -89 -73h-121q3 173 216 173q113 0 161.5 -48.5t48.5 -145.5v-311zM300 -206h-130v124h130v-124z" />
<glyph unicode="&#x1ea2;" horiz-adv-x="638" d="M402 251l-83 264h-1l-85 -264h169zM635 0h-151l-42 137h-245l-47 -137h-147l237 664h161zM342 753h-50q0 38 25 53q23 13 23 30t-24 17q-20 0 -41 -15l-18 55q29 25 70 25q34 0 54 -16.5t20 -44.5q0 -19 -9 -33.5t-20.5 -22t-20.5 -20t-9 -28.5z" />
<glyph unicode="&#x1ea3;" horiz-adv-x="481" d="M324 187l1 54q-16 -16 -84 -29q-55 -10 -76.5 -27.5t-21.5 -49.5q0 -55 63 -55q50 0 83.5 31.5t34.5 75.5zM455 0h-121q-6 19 -8 44q-52 -57 -149 -57q-81 0 -122.5 36.5t-41.5 98.5q0 41 12 71t28.5 47t50.5 29t60 17t75 12q48 7 65.5 18.5t17.5 37.5q0 24 -22.5 37.5 t-60.5 13.5q-79 0 -89 -73h-121q3 173 216 173q113 0 161.5 -48.5t48.5 -145.5v-311zM263 581h-50q0 38 25 53q23 13 23 30t-24 17q-20 0 -41 -15l-18 55q29 25 70 25q34 0 54 -16.5t20 -44.5q0 -24 -15 -40t-29.5 -30.5t-14.5 -33.5z" />
<glyph unicode="&#x1ea4;" horiz-adv-x="638" d="M402 251l-83 264h-1l-85 -264h169zM635 0h-151l-42 137h-245l-47 -137h-147l237 664h161zM437 743l-116 101l-116 -101l-39 44l110 115h91l110 -115zM715 834l-185 -78l-25 46l171 100z" />
<glyph unicode="&#x1ea5;" horiz-adv-x="481" d="M324 187l1 54q-16 -16 -84 -29q-55 -10 -76.5 -27.5t-21.5 -49.5q0 -55 63 -55q50 0 83.5 31.5t34.5 75.5zM455 0h-121q-6 19 -8 44q-52 -57 -149 -57q-81 0 -122.5 36.5t-41.5 98.5q0 41 12 71t28.5 47t50.5 29t60 17t75 12q48 7 65.5 18.5t17.5 37.5q0 24 -22.5 37.5 t-60.5 13.5q-79 0 -89 -73h-121q3 173 216 173q113 0 161.5 -48.5t48.5 -145.5v-311zM357 571l-116 101l-116 -101l-39 44l110 115h91l110 -115zM635 662l-185 -78l-25 46l171 100z" />
<glyph unicode="&#x1ea6;" horiz-adv-x="638" d="M402 251l-83 264h-1l-85 -264h169zM635 0h-151l-42 137h-245l-47 -137h-147l237 664h161zM433 743l-116 101l-116 -101l-40 44l110 115h91l110 -115zM108 756l-185 78l39 68l171 -100z" />
<glyph unicode="&#x1ea7;" horiz-adv-x="481" d="M324 187l1 54q-16 -16 -84 -29q-55 -10 -76.5 -27.5t-21.5 -49.5q0 -55 63 -55q50 0 83.5 31.5t34.5 75.5zM455 0h-121q-6 19 -8 44q-52 -57 -149 -57q-81 0 -122.5 36.5t-41.5 98.5q0 41 12 71t28.5 47t50.5 29t60 17t75 12q48 7 65.5 18.5t17.5 37.5q0 24 -22.5 37.5 t-60.5 13.5q-79 0 -89 -73h-121q3 173 216 173q113 0 161.5 -48.5t48.5 -145.5v-311zM351 571l-116 101l-116 -101l-40 44l110 115h91l110 -115zM26 584l-185 78l39 68l171 -100z" />
<glyph unicode="&#x1ea8;" horiz-adv-x="638" d="M402 251l-83 264h-1l-85 -264h169zM635 0h-151l-42 137h-245l-47 -137h-147l237 664h161zM543 753h-50q0 38 25 53q23 13 23 30t-24 17q-20 0 -41 -15l-18 55q29 25 70 25q34 0 54 -16.5t20 -44.5q0 -24 -15 -40t-29.5 -30.5t-14.5 -33.5zM433 743l-116 101l-116 -101 l-40 44l110 115h91l110 -115z" />
<glyph unicode="&#x1ea9;" horiz-adv-x="481" d="M324 187l1 54q-16 -16 -84 -29q-55 -10 -76.5 -27.5t-21.5 -49.5q0 -55 63 -55q50 0 83.5 31.5t34.5 75.5zM455 0h-121q-6 19 -8 44q-52 -57 -149 -57q-81 0 -122.5 36.5t-41.5 98.5q0 41 12 71t28.5 47t50.5 29t60 17t75 12q48 7 65.5 18.5t17.5 37.5q0 24 -22.5 37.5 t-60.5 13.5q-79 0 -89 -73h-121q3 173 216 173q113 0 161.5 -48.5t48.5 -145.5v-311zM466 581h-50q0 38 25 53q23 13 23 30t-24 17q-20 0 -41 -15l-18 55q29 25 70 25q34 0 54 -16.5t20 -44.5q0 -19 -9 -33.5t-20.5 -22t-20.5 -20t-9 -28.5zM356 571l-116 101l-116 -101 l-40 44l110 115h91l110 -115z" />
<glyph unicode="&#x1eaa;" horiz-adv-x="638" d="M402 251l-83 264h-1l-85 -264h169zM635 0h-151l-42 137h-245l-47 -137h-147l237 664h161zM397 918l51 -14q-15 -61 -78 -61q-18 0 -53.5 10t-46.5 10q-16 0 -28 -32l-49 20q17 63 70 63q25 0 58 -11.5t48 -11.5q23 0 28 27zM455 756l-34 -30l-102 70l-101 -70l-35 30 l96 80h80z" />
<glyph unicode="&#x1eab;" horiz-adv-x="481" d="M324 187l1 54q-16 -16 -84 -29q-55 -10 -76.5 -27.5t-21.5 -49.5q0 -55 63 -55q50 0 83.5 31.5t34.5 75.5zM455 0h-121q-6 19 -8 44q-52 -57 -149 -57q-81 0 -122.5 36.5t-41.5 98.5q0 41 12 71t28.5 47t50.5 29t60 17t75 12q48 7 65.5 18.5t17.5 37.5q0 24 -22.5 37.5 t-60.5 13.5q-79 0 -89 -73h-121q3 173 216 173q113 0 161.5 -48.5t48.5 -145.5v-311zM328 746l51 -14q-15 -61 -78 -61q-18 0 -53.5 10t-46.5 10q-16 0 -28 -32l-49 20q17 63 70 63q25 0 58 -11.5t48 -11.5q23 0 28 27zM386 584l-34 -30l-102 70l-101 -70l-35 30l96 80h80z " />
<glyph unicode="&#x1eac;" horiz-adv-x="638" d="M402 251l-83 264h-1l-85 -264h169zM635 0h-151l-42 137h-245l-47 -137h-147l237 664h161zM454 733l-135 118l-135 -118l-46 51l128 134h106l128 -134zM384 -206h-130v124h130v-124z" />
<glyph unicode="&#x1ead;" horiz-adv-x="481" d="M324 187l1 54q-16 -16 -84 -29q-55 -10 -76.5 -27.5t-21.5 -49.5q0 -55 63 -55q50 0 83.5 31.5t34.5 75.5zM455 0h-121q-6 19 -8 44q-52 -57 -149 -57q-81 0 -122.5 36.5t-41.5 98.5q0 41 12 71t28.5 47t50.5 29t60 17t75 12q48 7 65.5 18.5t17.5 37.5q0 24 -22.5 37.5 t-60.5 13.5q-79 0 -89 -73h-121q3 173 216 173q113 0 161.5 -48.5t48.5 -145.5v-311zM375 561l-135 118l-135 -118l-46 51l128 134h106l128 -134zM295 -206h-130v124h130v-124z" />
<glyph unicode="&#x1eae;" horiz-adv-x="638" d="M402 251l-83 264h-1l-85 -264h169zM635 0h-151l-42 137h-245l-47 -137h-147l237 664h161zM373 840h57q0 -54 -33 -84t-79 -30t-78.5 30t-32.5 84h57q0 -28 14.5 -44t39.5 -16q53 0 55 60zM418 871l-128 -55l-18 33l119 69z" />
<glyph unicode="&#x1eaf;" horiz-adv-x="481" d="M324 187l1 54q-16 -16 -84 -29q-55 -10 -76.5 -27.5t-21.5 -49.5q0 -55 63 -55q50 0 83.5 31.5t34.5 75.5zM455 0h-121q-6 19 -8 44q-52 -57 -149 -57q-81 0 -122.5 36.5t-41.5 98.5q0 41 12 71t28.5 47t50.5 29t60 17t75 12q48 7 65.5 18.5t17.5 37.5q0 24 -22.5 37.5 t-60.5 13.5q-79 0 -89 -73h-121q3 173 216 173q113 0 161.5 -48.5t48.5 -145.5v-311zM301 668h57q0 -54 -33 -84t-79 -30t-78.5 30t-32.5 84h57q0 -28 14.5 -44t39.5 -16q53 0 55 60zM346 699l-128 -55l-18 33l119 69z" />
<glyph unicode="&#x1eb0;" horiz-adv-x="638" d="M402 251l-83 264h-1l-85 -264h169zM635 0h-151l-42 137h-245l-47 -137h-147l237 664h161zM373 840h57q0 -54 -32.5 -84t-78.5 -30t-79 30t-33 84h57q2 -60 55 -60q25 0 39.5 16t14.5 44zM347 816l-128 55l27 47l119 -69z" />
<glyph unicode="&#x1eb1;" horiz-adv-x="481" d="M324 187l1 54q-16 -16 -84 -29q-55 -10 -76.5 -27.5t-21.5 -49.5q0 -55 63 -55q50 0 83.5 31.5t34.5 75.5zM455 0h-121q-6 19 -8 44q-52 -57 -149 -57q-81 0 -122.5 36.5t-41.5 98.5q0 41 12 71t28.5 47t50.5 29t60 17t75 12q48 7 65.5 18.5t17.5 37.5q0 24 -22.5 37.5 t-60.5 13.5q-79 0 -89 -73h-121q3 173 216 173q113 0 161.5 -48.5t48.5 -145.5v-311zM301 668h57q0 -54 -32.5 -84t-78.5 -30t-79 30t-33 84h57q2 -60 55 -60q25 0 39.5 16t14.5 44zM275 644l-128 55l27 47l119 -69z" />
<glyph unicode="&#x1eb2;" horiz-adv-x="638" d="M402 251l-83 264h-1l-85 -264h169zM635 0h-151l-42 137h-245l-47 -137h-147l237 664h161zM373 840h57q0 -54 -32.5 -84t-78.5 -30t-79 30t-33 84h57q2 -60 55 -60q25 0 39.5 16t14.5 44zM330 795h-37q0 29 19 40q17 10 17 22q0 13 -18 13q-13 0 -31 -11l-13 40 q22 19 52 19q25 0 40 -12.5t15 -32.5q0 -22 -22 -41.5t-22 -36.5z" />
<glyph unicode="&#x1eb3;" horiz-adv-x="481" d="M324 187l1 54q-16 -16 -84 -29q-55 -10 -76.5 -27.5t-21.5 -49.5q0 -55 63 -55q50 0 83.5 31.5t34.5 75.5zM455 0h-121q-6 19 -8 44q-52 -57 -149 -57q-81 0 -122.5 36.5t-41.5 98.5q0 41 12 71t28.5 47t50.5 29t60 17t75 12q48 7 65.5 18.5t17.5 37.5q0 24 -22.5 37.5 t-60.5 13.5q-79 0 -89 -73h-121q3 173 216 173q113 0 161.5 -48.5t48.5 -145.5v-311zM299 668h57q0 -54 -32.5 -84t-78.5 -30t-79 30t-33 84h57q2 -60 55 -60q25 0 39.5 16t14.5 44zM256 623h-37q0 29 19 40q17 10 17 22q0 13 -18 13q-13 0 -31 -11l-13 40q22 19 52 19 q25 0 40 -12.5t15 -32.5q0 -22 -22 -41.5t-22 -36.5z" />
<glyph unicode="&#x1eb4;" horiz-adv-x="638" d="M402 251l-83 264h-1l-85 -264h169zM635 0h-151l-42 137h-245l-47 -137h-147l237 664h161zM371 918l39 -10q-6 -27 -20.5 -40.5t-32.5 -13.5q-13 0 -35 11t-34 11q-9 0 -17 -23l-37 18q14 45 51 45q13 0 35 -11.5t36 -11.5q12 0 15 25zM373 840h57q0 -54 -32.5 -84 t-78.5 -30t-79 30t-33 84h57q2 -60 55 -60q25 0 39.5 16t14.5 44z" />
<glyph unicode="&#x1eb5;" horiz-adv-x="481" d="M324 187l1 54q-16 -16 -84 -29q-55 -10 -76.5 -27.5t-21.5 -49.5q0 -55 63 -55q50 0 83.5 31.5t34.5 75.5zM455 0h-121q-6 19 -8 44q-52 -57 -149 -57q-81 0 -122.5 36.5t-41.5 98.5q0 41 12 71t28.5 47t50.5 29t60 17t75 12q48 7 65.5 18.5t17.5 37.5q0 24 -22.5 37.5 t-60.5 13.5q-79 0 -89 -73h-121q3 173 216 173q113 0 161.5 -48.5t48.5 -145.5v-311zM293 746l39 -10q-6 -27 -20.5 -40.5t-32.5 -13.5q-13 0 -35 11t-34 11q-9 0 -17 -23l-37 18q14 45 51 45q13 0 35 -11.5t36 -11.5q12 0 15 25zM295 668h57q0 -54 -32.5 -84t-78.5 -30 t-79 30t-33 84h57q2 -60 55 -60q25 0 39.5 16t14.5 44z" />
<glyph unicode="&#x1eb6;" horiz-adv-x="638" d="M402 251l-83 264h-1l-85 -264h169zM635 0h-151l-42 137h-245l-47 -137h-147l237 664h161zM399 918h82q0 -79 -47.5 -122.5t-114.5 -43.5t-114.5 43.5t-47.5 122.5h82q2 -41 22.5 -64t57.5 -23t57.5 23t22.5 64zM384 -206h-130v124h130v-124z" />
<glyph unicode="&#x1eb7;" horiz-adv-x="481" d="M324 187l1 54q-16 -16 -84 -29q-55 -10 -76.5 -27.5t-21.5 -49.5q0 -55 63 -55q50 0 83.5 31.5t34.5 75.5zM455 0h-121q-6 19 -8 44q-52 -57 -149 -57q-81 0 -122.5 36.5t-41.5 98.5q0 41 12 71t28.5 47t50.5 29t60 17t75 12q48 7 65.5 18.5t17.5 37.5q0 24 -22.5 37.5 t-60.5 13.5q-79 0 -89 -73h-121q3 173 216 173q113 0 161.5 -48.5t48.5 -145.5v-311zM320 746h82q0 -79 -47.5 -122.5t-114.5 -43.5t-114.5 43.5t-47.5 122.5h82q2 -41 22.5 -64t57.5 -23t57.5 23t22.5 64zM295 -206h-130v124h130v-124z" />
<glyph unicode="&#x1eb8;" horiz-adv-x="527" d="M527 0h-504v664h488v-116h-353v-142h325v-117h-325v-171h369v-118zM345 -206h-130v124h130v-124z" />
<glyph unicode="&#x1eb9;" d="M149 294h201q-1 52 -30.5 80t-70.5 28q-40 0 -68 -29t-32 -79zM484 212h-339q3 -56 32.5 -89t77.5 -33q32 0 56.5 15t31.5 40h134q-22 -75 -79.5 -116.5t-136.5 -41.5q-246 0 -246 268q0 115 63 182.5t175 67.5q231 0 231 -293zM311 -206h-130v124h130v-124z" />
<glyph unicode="&#x1eba;" horiz-adv-x="527" d="M527 0h-504v664h488v-116h-353v-142h325v-117h-325v-171h369v-118zM305 753h-50q0 38 25 53q23 13 23 30t-24 17q-20 0 -41 -15l-18 55q29 25 70 25q34 0 54 -16.5t20 -44.5q0 -24 -15 -40t-29.5 -30.5t-14.5 -33.5z" />
<glyph unicode="&#x1ebb;" d="M149 294h201q-1 52 -30.5 80t-70.5 28q-40 0 -68 -29t-32 -79zM484 212h-339q3 -56 32.5 -89t77.5 -33q32 0 56.5 15t31.5 40h134q-22 -75 -79.5 -116.5t-136.5 -41.5q-246 0 -246 268q0 115 63 182.5t175 67.5q231 0 231 -293zM265 581h-50q0 38 25 53q23 13 23 30 t-24 17q-20 0 -41 -15l-18 55q29 25 70 25q34 0 54 -16.5t20 -44.5q0 -24 -15 -40t-29.5 -30.5t-14.5 -33.5z" />
<glyph unicode="&#x1ebc;" horiz-adv-x="527" d="M527 0h-504v664h488v-116h-353v-142h325v-117h-325v-171h369v-118zM360 873l75 -27q-30 -98 -109 -98q-26 0 -67 22.5t-61 22.5q-5 0 -11 -3t-14 -13.5t-14 -27.5l-69 37q28 88 97 88q33 0 75 -24t58 -24q11 0 23.5 11.5t16.5 35.5z" />
<glyph unicode="&#x1ebd;" d="M149 294h201q-1 52 -30.5 80t-70.5 28q-40 0 -68 -29t-32 -79zM484 212h-339q3 -56 32.5 -89t77.5 -33q32 0 56.5 15t31.5 40h134q-22 -75 -79.5 -116.5t-136.5 -41.5q-246 0 -246 268q0 115 63 182.5t175 67.5q231 0 231 -293zM346 701l75 -27q-30 -98 -109 -98 q-26 0 -67 22.5t-61 22.5q-5 0 -11 -3t-14 -13.5t-14 -27.5l-69 37q28 88 97 88q33 0 75 -24t58 -24q11 0 23.5 11.5t16.5 35.5z" />
<glyph unicode="&#x1ebe;" horiz-adv-x="527" d="M527 0h-504v664h488v-116h-353v-142h325v-117h-325v-171h369v-118zM389 743l-116 101l-116 -101l-39 44l110 115h91l110 -115zM667 834l-185 -78l-25 46l171 100z" />
<glyph unicode="&#x1ebf;" d="M149 294h201q-1 52 -30.5 80t-70.5 28q-40 0 -68 -29t-32 -79zM484 212h-339q3 -56 32.5 -89t77.5 -33q32 0 56.5 15t31.5 40h134q-22 -75 -79.5 -116.5t-136.5 -41.5q-246 0 -246 268q0 115 63 182.5t175 67.5q231 0 231 -293zM366 571l-116 101l-116 -101l-39 44 l110 115h91l110 -115zM644 662l-185 -78l-25 46l171 100z" />
<glyph unicode="&#x1ec0;" horiz-adv-x="527" d="M527 0h-504v664h488v-116h-353v-142h325v-117h-325v-171h369v-118zM383 743l-116 101l-116 -101l-40 44l110 115h91l110 -115zM58 756l-185 78l39 68l171 -100z" />
<glyph unicode="&#x1ec1;" d="M149 294h201q-1 52 -30.5 80t-70.5 28q-40 0 -68 -29t-32 -79zM484 212h-339q3 -56 32.5 -89t77.5 -33q32 0 56.5 15t31.5 40h134q-22 -75 -79.5 -116.5t-136.5 -41.5q-246 0 -246 268q0 115 63 182.5t175 67.5q231 0 231 -293zM355 571l-116 101l-116 -101l-40 44 l110 115h91l110 -115zM30 584l-185 78l39 68l171 -100z" />
<glyph unicode="&#x1ec2;" horiz-adv-x="527" d="M527 0h-504v664h488v-116h-353v-142h325v-117h-325v-171h369v-118zM499 753h-50q0 38 25 53q23 13 23 30t-24 17q-20 0 -41 -15l-18 55q29 25 70 25q34 0 54 -16.5t20 -44.5q0 -24 -15 -40t-29.5 -30.5t-14.5 -33.5zM389 743l-116 101l-116 -101l-40 44l110 115h91 l110 -115z" />
<glyph unicode="&#x1ec3;" d="M149 294h201q-1 52 -30.5 80t-70.5 28q-40 0 -68 -29t-32 -79zM484 212h-339q3 -56 32.5 -89t77.5 -33q32 0 56.5 15t31.5 40h134q-22 -75 -79.5 -116.5t-136.5 -41.5q-246 0 -246 268q0 115 63 182.5t175 67.5q231 0 231 -293zM478 581h-50q0 38 25 53q23 13 23 30 t-24 17q-20 0 -41 -15l-18 55q29 25 70 25q34 0 54 -16.5t20 -44.5q0 -19 -9 -33.5t-20.5 -22t-20.5 -20t-9 -28.5zM368 571l-116 101l-116 -101l-40 44l110 115h91l110 -115z" />
<glyph unicode="&#x1ec4;" horiz-adv-x="527" d="M527 0h-504v664h488v-116h-353v-142h325v-117h-325v-171h369v-118zM351 918l51 -14q-15 -61 -78 -61q-18 0 -53.5 10t-46.5 10q-16 0 -28 -32l-49 20q17 63 70 63q25 0 58 -11.5t48 -11.5q23 0 28 27zM409 756l-34 -30l-102 70l-101 -70l-35 30l96 80h80z" />
<glyph unicode="&#x1ec5;" d="M149 294h201q-1 52 -30.5 80t-70.5 28q-40 0 -68 -29t-32 -79zM484 212h-339q3 -56 32.5 -89t77.5 -33q32 0 56.5 15t31.5 40h134q-22 -75 -79.5 -116.5t-136.5 -41.5q-246 0 -246 268q0 115 63 182.5t175 67.5q231 0 231 -293zM327 746l51 -14q-15 -61 -78 -61 q-18 0 -53.5 10t-46.5 10q-16 0 -28 -32l-49 20q17 63 70 63q25 0 58 -11.5t48 -11.5q23 0 28 27zM385 584l-34 -30l-102 70l-101 -70l-35 30l96 80h80z" />
<glyph unicode="&#x1ec6;" horiz-adv-x="527" d="M527 0h-504v664h488v-116h-353v-142h325v-117h-325v-171h369v-118zM406 733l-135 118l-135 -118l-46 51l128 134h106l128 -134zM328 -206h-130v124h130v-124z" />
<glyph unicode="&#x1ec7;" d="M149 294h201q-1 52 -30.5 80t-70.5 28q-40 0 -68 -29t-32 -79zM484 212h-339q3 -56 32.5 -89t77.5 -33q32 0 56.5 15t31.5 40h134q-22 -75 -79.5 -116.5t-136.5 -41.5q-246 0 -246 268q0 115 63 182.5t175 67.5q231 0 231 -293zM384 561l-135 118l-135 -118l-46 51 l128 134h106l128 -134zM314 -206h-130v124h130v-124z" />
<glyph unicode="&#x1ec8;" horiz-adv-x="184" d="M162 0h-139v664h139v-664zM115 753h-50q0 38 25 53q23 13 23 30t-24 17q-20 0 -41 -15l-18 55q29 25 70 25q34 0 54 -16.5t20 -44.5q0 -24 -15 -40t-29.5 -30.5t-14.5 -33.5z" />
<glyph unicode="&#x1ec9;" horiz-adv-x="188" d="M159 0h-130v492h130v-492zM117 581h-50q0 38 25 53q23 13 23 30t-24 17q-20 0 -41 -15l-18 55q29 25 70 25q34 0 54 -16.5t20 -44.5q0 -24 -15 -40t-29.5 -30.5t-14.5 -33.5z" />
<glyph unicode="&#x1eca;" horiz-adv-x="184" d="M162 0h-139v664h139v-664zM157 -206h-130v124h130v-124z" />
<glyph unicode="&#x1ecb;" horiz-adv-x="188" d="M159 0h-130v492h130v-492zM159 551h-130v121h130v-121zM159 -206h-130v124h130v-124z" />
<glyph unicode="&#x1ecc;" horiz-adv-x="666" d="M334 96q80 0 130 57.5t50 169.5q0 117 -46.5 178.5t-133.5 61.5q-88 0 -135 -61.5t-47 -178.5q0 -227 182 -227zM334 -23q-153 0 -236 90.5t-83 258.5q0 170 83.5 265t235.5 95t234.5 -95.5t82.5 -267.5q0 -170 -81.5 -258t-235.5 -88zM398 -206h-130v124h130v-124z" />
<glyph unicode="&#x1ecd;" horiz-adv-x="534" d="M268 96q119 0 119 150q0 149 -119 149t-119 -149q0 -150 119 -150zM268 -13q-118 0 -185.5 71t-67.5 188q0 118 68.5 188.5t184.5 70.5q115 0 182.5 -70.5t67.5 -188.5q0 -117 -68 -188t-182 -71zM332 -206h-130v124h130v-124z" />
<glyph unicode="&#x1ece;" horiz-adv-x="666" d="M334 96q80 0 130 57.5t50 169.5q0 117 -46.5 178.5t-133.5 61.5q-88 0 -135 -61.5t-47 -178.5q0 -227 182 -227zM334 -23q-153 0 -236 90.5t-83 258.5q0 170 83.5 265t235.5 95t234.5 -95.5t82.5 -267.5q0 -170 -81.5 -258t-235.5 -88zM356 753h-50q0 38 25 53 q23 13 23 30t-24 17q-20 0 -41 -15l-18 55q29 25 70 25q34 0 54 -16.5t20 -44.5q0 -19 -9 -33.5t-20.5 -22t-20.5 -20t-9 -28.5z" />
<glyph unicode="&#x1ecf;" horiz-adv-x="534" d="M268 96q119 0 119 150q0 149 -119 149t-119 -149q0 -150 119 -150zM268 -13q-118 0 -185.5 71t-67.5 188q0 118 68.5 188.5t184.5 70.5q115 0 182.5 -70.5t67.5 -188.5q0 -117 -68 -188t-182 -71zM290 581h-50q0 38 25 53q23 13 23 30t-24 17q-20 0 -41 -15l-18 55 q29 25 70 25q34 0 54 -16.5t20 -44.5q0 -19 -9 -33.5t-20.5 -22t-20.5 -20t-9 -28.5z" />
<glyph unicode="&#x1ed0;" horiz-adv-x="666" d="M334 96q80 0 130 57.5t50 169.5q0 117 -46.5 178.5t-133.5 61.5q-88 0 -135 -61.5t-47 -178.5q0 -227 182 -227zM334 -23q-153 0 -236 90.5t-83 258.5q0 170 83.5 265t235.5 95t234.5 -95.5t82.5 -267.5q0 -170 -81.5 -258t-235.5 -88zM449 743l-116 101l-116 -101 l-39 44l110 115h91l110 -115zM727 834l-185 -78l-25 46l171 100z" />
<glyph unicode="&#x1ed1;" horiz-adv-x="534" d="M268 96q119 0 119 150q0 149 -119 149t-119 -149q0 -150 119 -150zM268 -13q-118 0 -185.5 71t-67.5 188q0 118 68.5 188.5t184.5 70.5q115 0 182.5 -70.5t67.5 -188.5q0 -117 -68 -188t-182 -71zM392 571l-116 101l-116 -101l-39 44l110 115h91l110 -115zM670 662 l-185 -78l-25 46l171 100z" />
<glyph unicode="&#x1ed2;" horiz-adv-x="666" d="M334 96q80 0 130 57.5t50 169.5q0 117 -46.5 178.5t-133.5 61.5q-88 0 -135 -61.5t-47 -178.5q0 -227 182 -227zM334 -23q-153 0 -236 90.5t-83 258.5q0 170 83.5 265t235.5 95t234.5 -95.5t82.5 -267.5q0 -170 -81.5 -258t-235.5 -88zM450 743l-116 101l-116 -101 l-40 44l110 115h91l110 -115zM125 756l-185 78l39 68l171 -100z" />
<glyph unicode="&#x1ed3;" horiz-adv-x="534" d="M268 96q119 0 119 150q0 149 -119 149t-119 -149q0 -150 119 -150zM268 -13q-118 0 -185.5 71t-67.5 188q0 118 68.5 188.5t184.5 70.5q115 0 182.5 -70.5t67.5 -188.5q0 -117 -68 -188t-182 -71zM382 571l-116 101l-116 -101l-40 44l110 115h91l110 -115zM57 584 l-185 78l39 68l171 -100z" />
<glyph unicode="&#x1ed4;" horiz-adv-x="666" d="M334 96q80 0 130 57.5t50 169.5q0 117 -46.5 178.5t-133.5 61.5q-88 0 -135 -61.5t-47 -178.5q0 -227 182 -227zM334 -23q-153 0 -236 90.5t-83 258.5q0 170 83.5 265t235.5 95t234.5 -95.5t82.5 -267.5q0 -170 -81.5 -258t-235.5 -88zM557 753h-50q0 38 25 53 q23 13 23 30t-24 17q-20 0 -41 -15l-18 55q29 25 70 25q34 0 54 -16.5t20 -44.5q0 -24 -15 -40t-29.5 -30.5t-14.5 -33.5zM447 743l-116 101l-116 -101l-40 44l110 115h91l110 -115z" />
<glyph unicode="&#x1ed5;" horiz-adv-x="534" d="M268 96q119 0 119 150q0 149 -119 149t-119 -149q0 -150 119 -150zM268 -13q-118 0 -185.5 71t-67.5 188q0 118 68.5 188.5t184.5 70.5q115 0 182.5 -70.5t67.5 -188.5q0 -117 -68 -188t-182 -71zM499 581h-50q0 38 25 53q23 13 23 30t-24 17q-20 0 -41 -15l-18 55 q29 25 70 25q34 0 54 -16.5t20 -44.5q0 -24 -15 -40t-29.5 -30.5t-14.5 -33.5zM389 571l-116 101l-116 -101l-40 44l110 115h91l110 -115z" />
<glyph unicode="&#x1ed6;" horiz-adv-x="666" d="M334 96q80 0 130 57.5t50 169.5q0 117 -46.5 178.5t-133.5 61.5q-88 0 -135 -61.5t-47 -178.5q0 -227 182 -227zM334 -23q-153 0 -236 90.5t-83 258.5q0 170 83.5 265t235.5 95t234.5 -95.5t82.5 -267.5q0 -170 -81.5 -258t-235.5 -88zM411 918l51 -14q-15 -61 -78 -61 q-18 0 -53.5 10t-46.5 10q-16 0 -28 -32l-49 20q17 63 70 63q25 0 58 -11.5t48 -11.5q23 0 28 27zM469 756l-34 -30l-102 70l-101 -70l-35 30l96 80h80z" />
<glyph unicode="&#x1ed7;" horiz-adv-x="534" d="M268 96q119 0 119 150q0 149 -119 149t-119 -149q0 -150 119 -150zM268 -13q-118 0 -185.5 71t-67.5 188q0 118 68.5 188.5t184.5 70.5q115 0 182.5 -70.5t67.5 -188.5q0 -117 -68 -188t-182 -71zM345 746l51 -14q-15 -61 -78 -61q-18 0 -53.5 10t-46.5 10q-16 0 -28 -32 l-49 20q17 63 70 63q25 0 58 -11.5t48 -11.5q23 0 28 27zM403 584l-34 -30l-102 70l-101 -70l-35 30l96 80h80z" />
<glyph unicode="&#x1ed8;" horiz-adv-x="666" d="M334 96q80 0 130 57.5t50 169.5q0 117 -46.5 178.5t-133.5 61.5q-88 0 -135 -61.5t-47 -178.5q0 -227 182 -227zM334 -23q-153 0 -236 90.5t-83 258.5q0 170 83.5 265t235.5 95t234.5 -95.5t82.5 -267.5q0 -170 -81.5 -258t-235.5 -88zM468 733l-135 118l-135 -118 l-46 51l128 134h106l128 -134zM398 -206h-130v124h130v-124z" />
<glyph unicode="&#x1ed9;" horiz-adv-x="534" d="M268 96q119 0 119 150q0 149 -119 149t-119 -149q0 -150 119 -150zM268 -13q-118 0 -185.5 71t-67.5 188q0 118 68.5 188.5t184.5 70.5q115 0 182.5 -70.5t67.5 -188.5q0 -117 -68 -188t-182 -71zM402 561l-135 118l-135 -118l-46 51l128 134h106l128 -134zM332 -206 h-130v124h130v-124z" />
<glyph unicode="&#x1eda;" horiz-adv-x="765" d="M682 702h70q21 -24 21 -78q0 -107 -92 -107q-35 0 -74 15q44 -85 44 -209q0 -170 -81.5 -258t-235.5 -88q-153 0 -236 90.5t-83 258.5q0 170 83.5 265t235.5 95q126 0 206 -68q41 -35 103 -35q48 0 48 63q0 34 -9 56zM334 96q80 0 130 57.5t50 169.5q0 117 -46.5 178.5 t-133.5 61.5q-88 0 -135 -61.5t-47 -178.5q0 -227 182 -227zM489 820l-223 -94l-31 55l207 121z" />
<glyph unicode="&#x1edb;" horiz-adv-x="647" d="M564 543h70q21 -24 21 -78q0 -44 -19.5 -75.5t-60.5 -31.5q-49 0 -83 14q26 -55 26 -126q0 -117 -68 -188t-182 -71q-118 0 -185.5 71t-67.5 188q0 118 68.5 188.5t184.5 70.5q91 0 154 -46q48 -35 103 -35q48 0 48 63q0 34 -9 56zM268 96q119 0 119 150q0 149 -119 149 t-119 -149q0 -150 119 -150zM423 648l-223 -94l-31 55l207 121z" />
<glyph unicode="&#x1edc;" horiz-adv-x="765" d="M682 702h70q21 -24 21 -78q0 -107 -92 -107q-35 0 -74 15q44 -85 44 -209q0 -170 -81.5 -258t-235.5 -88q-153 0 -236 90.5t-83 258.5q0 170 83.5 265t235.5 95q126 0 206 -68q41 -35 103 -35q48 0 48 63q0 34 -9 56zM334 96q80 0 130 57.5t50 169.5q0 117 -46.5 178.5 t-133.5 61.5q-88 0 -135 -61.5t-47 -178.5q0 -227 182 -227zM398 726l-223 94l47 82l207 -121z" />
<glyph unicode="&#x1edd;" horiz-adv-x="647" d="M564 543h70q21 -24 21 -78q0 -44 -19.5 -75.5t-60.5 -31.5q-49 0 -83 14q26 -55 26 -126q0 -117 -68 -188t-182 -71q-118 0 -185.5 71t-67.5 188q0 118 68.5 188.5t184.5 70.5q91 0 154 -46q48 -35 103 -35q48 0 48 63q0 34 -9 56zM268 96q119 0 119 150q0 149 -119 149 t-119 -149q0 -150 119 -150zM332 554l-223 94l47 82l207 -121z" />
<glyph unicode="&#x1ede;" horiz-adv-x="765" d="M682 702h70q21 -24 21 -78q0 -107 -92 -107q-35 0 -74 15q44 -85 44 -209q0 -170 -81.5 -258t-235.5 -88q-153 0 -236 90.5t-83 258.5q0 170 83.5 265t235.5 95q126 0 206 -68q41 -35 103 -35q48 0 48 63q0 34 -9 56zM334 96q80 0 130 57.5t50 169.5q0 117 -46.5 178.5 t-133.5 61.5q-88 0 -135 -61.5t-47 -178.5q0 -227 182 -227zM349 753h-50q0 38 25 53q23 13 23 30t-24 17q-20 0 -41 -15l-18 55q29 25 70 25q34 0 54 -16.5t20 -44.5q0 -24 -15 -40t-29.5 -30.5t-14.5 -33.5z" />
<glyph unicode="&#x1edf;" horiz-adv-x="647" d="M564 543h70q21 -24 21 -78q0 -44 -19.5 -75.5t-60.5 -31.5q-49 0 -83 14q26 -55 26 -126q0 -117 -68 -188t-182 -71q-118 0 -185.5 71t-67.5 188q0 118 68.5 188.5t184.5 70.5q91 0 154 -46q48 -35 103 -35q48 0 48 63q0 34 -9 56zM268 96q119 0 119 150q0 149 -119 149 t-119 -149q0 -150 119 -150zM289 581h-50q0 38 25 53q23 13 23 30t-24 17q-20 0 -41 -15l-18 55q29 25 70 25q34 0 54 -16.5t20 -44.5q0 -24 -15 -40t-29.5 -30.5t-14.5 -33.5z" />
<glyph unicode="&#x1ee0;" horiz-adv-x="765" d="M682 702h70q21 -24 21 -78q0 -107 -92 -107q-35 0 -74 15q44 -85 44 -209q0 -170 -81.5 -258t-235.5 -88q-153 0 -236 90.5t-83 258.5q0 170 83.5 265t235.5 95q126 0 206 -68q41 -35 103 -35q48 0 48 63q0 34 -9 56zM334 96q80 0 130 57.5t50 169.5q0 117 -46.5 178.5 t-133.5 61.5q-88 0 -135 -61.5t-47 -178.5q0 -227 182 -227zM424 873l75 -27q-30 -98 -109 -98q-26 0 -67 22.5t-61 22.5q-5 0 -11 -3t-14 -13.5t-14 -27.5l-69 37q28 88 97 88q33 0 75 -24t58 -24q11 0 23.5 11.5t16.5 35.5z" />
<glyph unicode="&#x1ee1;" horiz-adv-x="647" d="M564 543h70q21 -24 21 -78q0 -44 -19.5 -75.5t-60.5 -31.5q-49 0 -83 14q26 -55 26 -126q0 -117 -68 -188t-182 -71q-118 0 -185.5 71t-67.5 188q0 118 68.5 188.5t184.5 70.5q91 0 154 -46q48 -35 103 -35q48 0 48 63q0 34 -9 56zM268 96q119 0 119 150q0 149 -119 149 t-119 -149q0 -150 119 -150zM365 701l75 -27q-30 -98 -109 -98q-27 0 -67 22.5t-61 22.5q-5 0 -11 -3t-14 -13.5t-14 -27.5l-69 37q28 88 97 88q33 0 75 -24t58 -24q11 0 23.5 11.5t16.5 35.5z" />
<glyph unicode="&#x1ee2;" horiz-adv-x="765" d="M682 702h70q21 -24 21 -78q0 -107 -92 -107q-35 0 -74 15q44 -85 44 -209q0 -170 -81.5 -258t-235.5 -88q-153 0 -236 90.5t-83 258.5q0 170 83.5 265t235.5 95q126 0 206 -68q41 -35 103 -35q48 0 48 63q0 34 -9 56zM334 96q80 0 130 57.5t50 169.5q0 117 -46.5 178.5 t-133.5 61.5q-88 0 -135 -61.5t-47 -178.5q0 -227 182 -227zM397 -206h-130v124h130v-124z" />
<glyph unicode="&#x1ee3;" horiz-adv-x="647" d="M564 543h70q21 -24 21 -78q0 -44 -19.5 -75.5t-60.5 -31.5q-49 0 -83 14q26 -55 26 -126q0 -117 -68 -188t-182 -71q-118 0 -185.5 71t-67.5 188q0 118 68.5 188.5t184.5 70.5q91 0 154 -46q48 -35 103 -35q48 0 48 63q0 34 -9 56zM268 96q119 0 119 150q0 149 -119 149 t-119 -149q0 -150 119 -150zM331 -206h-130v124h130v-124z" />
<glyph unicode="&#x1ee4;" horiz-adv-x="581" d="M416 221v443h142v-443q0 -120 -70.5 -182t-202.5 -62q-124 0 -193 59.5t-69 176.5v451h141v-438q0 -62 31.5 -98t87.5 -36q133 0 133 129zM355 -206h-130v124h130v-124z" />
<glyph unicode="&#x1ee5;" horiz-adv-x="495" d="M469 0h-123v69q-50 -82 -153 -82q-74 0 -120.5 50t-46.5 131v324h130v-304q0 -92 83 -92q48 0 74.5 31t26.5 81v284h129v-492zM312 -206h-130v124h130v-124z" />
<glyph unicode="&#x1ee6;" horiz-adv-x="581" d="M416 221v443h142v-443q0 -120 -70.5 -182t-202.5 -62q-124 0 -193 59.5t-69 176.5v451h141v-438q0 -62 31.5 -98t87.5 -36q133 0 133 129zM313 753h-50q0 38 25 53q23 13 23 30t-24 17q-20 0 -41 -15l-18 55q29 25 70 25q34 0 54 -16.5t20 -44.5q0 -24 -15 -40 t-29.5 -30.5t-14.5 -33.5z" />
<glyph unicode="&#x1ee7;" horiz-adv-x="495" d="M469 0h-123v69q-50 -82 -153 -82q-74 0 -120.5 50t-46.5 131v324h130v-304q0 -92 83 -92q48 0 74.5 31t26.5 81v284h129v-492zM270 581h-50q0 38 25 53q23 13 23 30t-24 17q-20 0 -41 -15l-18 55q29 25 70 25q34 0 54 -16.5t20 -44.5q0 -19 -9 -33.5t-20.5 -22t-20.5 -20 t-9 -28.5z" />
<glyph unicode="&#x1ee8;" horiz-adv-x="743" d="M416 221v443h142v-73q24 -8 55 -8q48 0 48 63q0 34 -9 56h70q21 -24 21 -78t-25.5 -81t-68.5 -27q-44 0 -91 26v-321q0 -120 -70.5 -182t-202.5 -62q-124 0 -193 59.5t-69 176.5v451h141v-438q0 -62 31.5 -98t87.5 -36q133 0 133 129zM453 820l-223 -94l-31 55l207 121z " />
<glyph unicode="&#x1ee9;" horiz-adv-x="633" d="M469 0h-123v69q-50 -82 -153 -82q-74 0 -120.5 50t-46.5 131v324h130v-304q0 -92 83 -92q48 0 74.5 31t26.5 81v284h129v-64q19 -4 42 -4q48 0 48 63q0 34 -9 56h70q21 -24 21 -78t-25 -80.5t-68 -26.5q-37 0 -79 18v-376zM406 648l-223 -94l-31 55l207 121z" />
<glyph unicode="&#x1eea;" horiz-adv-x="743" d="M416 221v443h142v-73q24 -8 55 -8q48 0 48 63q0 34 -9 56h70q21 -24 21 -78t-25.5 -81t-68.5 -27q-44 0 -91 26v-321q0 -120 -70.5 -182t-202.5 -62q-124 0 -193 59.5t-69 176.5v451h141v-438q0 -62 31.5 -98t87.5 -36q133 0 133 129zM363 726l-223 94l47 82l207 -121z " />
<glyph unicode="&#x1eeb;" horiz-adv-x="633" d="M469 0h-123v69q-50 -82 -153 -82q-74 0 -120.5 50t-46.5 131v324h130v-304q0 -92 83 -92q48 0 74.5 31t26.5 81v284h129v-64q19 -4 42 -4q48 0 48 63q0 34 -9 56h70q21 -24 21 -78t-25 -80.5t-68 -26.5q-37 0 -79 18v-376zM315 554l-223 94l47 82l207 -121z" />
<glyph unicode="&#x1eec;" horiz-adv-x="743" d="M416 221v443h142v-73q24 -8 55 -8q48 0 48 63q0 34 -9 56h70q21 -24 21 -78t-25.5 -81t-68.5 -27q-44 0 -91 26v-321q0 -120 -70.5 -182t-202.5 -62q-124 0 -193 59.5t-69 176.5v451h141v-438q0 -62 31.5 -98t87.5 -36q133 0 133 129zM314 753h-50q0 38 25 53 q23 13 23 30t-24 17q-20 0 -41 -15l-18 55q29 25 70 25q34 0 54 -16.5t20 -44.5q0 -19 -9 -33.5t-20.5 -22t-20.5 -20t-9 -28.5z" />
<glyph unicode="&#x1eed;" horiz-adv-x="633" d="M469 0h-123v69q-50 -82 -153 -82q-74 0 -120.5 50t-46.5 131v324h130v-304q0 -92 83 -92q48 0 74.5 31t26.5 81v284h129v-64q19 -4 42 -4q48 0 48 63q0 34 -9 56h70q21 -24 21 -78t-25 -80.5t-68 -26.5q-37 0 -79 18v-376zM269 581h-50q0 38 25 53q23 13 23 30t-24 17 q-20 0 -41 -15l-18 55q29 25 70 25q34 0 54 -16.5t20 -44.5q0 -24 -15 -40t-29.5 -30.5t-14.5 -33.5z" />
<glyph unicode="&#x1eee;" horiz-adv-x="743" d="M416 221v443h142v-73q24 -8 55 -8q48 0 48 63q0 34 -9 56h70q21 -24 21 -78t-25.5 -81t-68.5 -27q-44 0 -91 26v-321q0 -120 -70.5 -182t-202.5 -62q-124 0 -193 59.5t-69 176.5v451h141v-438q0 -62 31.5 -98t87.5 -36q133 0 133 129zM390 873l75 -27q-30 -98 -109 -98 q-26 0 -66.5 22.5t-61.5 22.5q-5 0 -11 -3t-14 -13.5t-14 -27.5l-69 37q28 88 97 88q33 0 75 -24t58 -24q11 0 23.5 11.5t16.5 35.5z" />
<glyph unicode="&#x1eef;" horiz-adv-x="633" d="M469 0h-123v69q-50 -82 -153 -82q-74 0 -120.5 50t-46.5 131v324h130v-304q0 -92 83 -92q48 0 74.5 31t26.5 81v284h129v-64q19 -4 42 -4q48 0 48 63q0 34 -9 56h70q21 -24 21 -78t-25 -80.5t-68 -26.5q-37 0 -79 18v-376zM350 701l75 -27q-30 -98 -109 -98 q-26 0 -67 22.5t-61 22.5q-5 0 -11 -3t-14 -13.5t-14 -27.5l-69 37q28 88 97 88q33 0 75 -24t58 -24q11 0 23.5 11.5t16.5 35.5z" />
<glyph unicode="&#x1ef0;" horiz-adv-x="743" d="M416 221v443h142v-73q24 -8 55 -8q48 0 48 63q0 34 -9 56h70q21 -24 21 -78t-25.5 -81t-68.5 -27q-44 0 -91 26v-321q0 -120 -70.5 -182t-202.5 -62q-124 0 -193 59.5t-69 176.5v451h141v-438q0 -62 31.5 -98t87.5 -36q133 0 133 129zM356 -206h-130v124h130v-124z" />
<glyph unicode="&#x1ef1;" horiz-adv-x="633" d="M469 0h-123v69q-50 -82 -153 -82q-74 0 -120.5 50t-46.5 131v324h130v-304q0 -92 83 -92q48 0 74.5 31t26.5 81v284h129v-64q19 -4 42 -4q48 0 48 63q0 34 -9 56h70q21 -24 21 -78t-25 -80.5t-68 -26.5q-37 0 -79 18v-376zM305 -206h-130v124h130v-124z" />
<glyph unicode="&#x1ef2;" horiz-adv-x="597" d="M372 0h-139v251l-230 413h162l140 -270l129 270h160l-222 -415v-249zM369 726l-223 94l47 82l207 -121z" />
<glyph unicode="&#x1ef3;" horiz-adv-x="495" d="M339 -15v80q-13 -32 -49.5 -51t-83.5 -19q-78 0 -129 49t-51 129v319h130v-300q0 -92 83 -92q44 0 72 26t28 66v300h130v-505q0 -101 -64 -160.5t-162 -59.5q-106 0 -161.5 54.5t-55.5 151.5h121q0 -44 26 -69t76 -25q37 0 63.5 29.5t26.5 76.5zM313 554l-223 94l47 82 l207 -121z" />
<glyph unicode="&#x2013;" horiz-adv-x="431" d="M418 257h-405v101h405v-101z" />
<glyph unicode="&#x2014;" horiz-adv-x="612" d="M599 257h-586v101h586v-101z" />
<glyph unicode="&#x2018;" horiz-adv-x="184" d="M161 450v-50q-77 16 -107.5 59.5t-30.5 129.5v102h138v-135h-77q1 -87 77 -106z" />
<glyph unicode="&#x2019;" horiz-adv-x="184" d="M24 400v50q76 19 77 106h-77v135h138v-102q0 -86 -30.5 -129.5t-107.5 -59.5z" />
<glyph unicode="&#x201a;" horiz-adv-x="195" d="M30 -156v50q76 19 77 106h-77v135h138v-102q0 -86 -30.5 -129.5t-107.5 -59.5z" />
<glyph unicode="&#x201c;" horiz-adv-x="368" d="M161 450v-50q-77 16 -107.5 59.5t-30.5 129.5v102h138v-135h-77q1 -87 77 -106zM345 450v-50q-77 16 -107.5 59.5t-30.5 129.5v102h138v-135h-77q1 -87 77 -106z" />
<glyph unicode="&#x201d;" horiz-adv-x="368" d="M24 400v50q76 19 77 106h-77v135h138v-102q0 -86 -30.5 -129.5t-107.5 -59.5zM208 400v50q76 19 77 106h-77v135h138v-102q0 -86 -30.5 -129.5t-107.5 -59.5z" />
<glyph unicode="&#x201e;" horiz-adv-x="390" d="M30 -156v50q76 19 77 106h-77v135h138v-102q0 -86 -30.5 -129.5t-107.5 -59.5zM225 -156v50q76 19 77 106h-77v135h138v-102q0 -86 -30.5 -129.5t-107.5 -59.5z" />
<glyph unicode="&#x2020;" horiz-adv-x="530" d="M320 0h-102v435h-183v80h183v149h102v-149h175v-80h-175v-435z" />
<glyph unicode="&#x2021;" horiz-adv-x="530" d="M495 149h-175v-149h-102v149h-183v80h183v206h-183v80h183v149h102v-149h175v-80h-175v-206h175v-80z" />
<glyph unicode="&#x2022;" horiz-adv-x="418" d="M371 343q0 -60 -47 -101t-115 -41q-70 0 -117 40.5t-47 101.5q0 62 47 102.5t117 40.5q68 0 115 -40.5t47 -102.5z" />
<glyph unicode="&#x2026;" horiz-adv-x="920" d="M162 0h-139v135h139v-135zM530 0h-139v135h139v-135zM898 0h-139v135h139v-135z" />
<glyph unicode="&#x2030;" horiz-adv-x="862" d="M132 384q24 0 35.5 29t11.5 95q0 68 -11.5 97t-35.5 29q-47 0 -47 -125t47 -125zM130 331q-113 0 -113 179q0 176 113 176q115 0 115 -175q0 -180 -115 -180zM94 -20h-67l461 704h68zM455 31q24 0 35.5 29t11.5 95q0 68 -11.5 97t-35.5 29q-47 0 -47 -125t47 -125z M453 -22q-113 0 -113 179q0 176 113 176q115 0 115 -175q0 -180 -115 -180zM737 31q24 0 35.5 29t11.5 95q0 68 -11.5 97t-35.5 29q-47 0 -47 -125t47 -125zM735 -22q-113 0 -113 179q0 176 113 176q115 0 115 -175q0 -180 -115 -180z" />
<glyph unicode="&#x2039;" horiz-adv-x="232" d="M156 145l-143 172l143 174l63 -68l-94 -106l94 -105z" />
<glyph unicode="&#x203a;" horiz-adv-x="232" d="M76 145l-63 67l94 105l-94 106l63 68l143 -174z" />
<glyph unicode="&#x2044;" horiz-adv-x="131" d="M-132 -20h-67l461 704h68z" />
<glyph unicode="&#x2070;" horiz-adv-x="272" d="M138 384q24 0 35.5 29t11.5 95q0 68 -11.5 97t-35.5 29q-47 0 -47 -125t47 -125zM136 331q-113 0 -113 179q0 176 113 176q115 0 115 -175q0 -180 -115 -180z" />
<glyph unicode="&#x2074;" horiz-adv-x="265" d="M147 466v117l-68 -117h68zM211 343h-65v72h-129v57l121 203h73v-209h37v-51h-37v-72z" />
<glyph unicode="&#x2075;" horiz-adv-x="272" d="M96 473h-67l7 202h204v-55h-146l-3 -89q22 23 66 23q42 0 69 -28t27 -76q0 -54 -32 -86.5t-83 -32.5q-45 0 -77 27.5t-33 69.5h65q2 -20 14 -32t31 -12q50 0 50 63q0 55 -46 55q-32 0 -46 -29z" />
<glyph unicode="&#x2076;" horiz-adv-x="271" d="M138 384q22 0 34 17.5t12 45.5t-13 45t-34 17q-22 0 -36 -17t-14 -44q0 -29 13.5 -46.5t37.5 -17.5zM242 603h-64q-3 31 -35 31q-51 0 -57 -105q28 31 68 31q41 0 67.5 -29.5t26.5 -80.5q0 -52 -30.5 -85.5t-78.5 -33.5q-117 0 -117 167q0 98 30.5 143t93.5 45 q40 0 65.5 -21.5t30.5 -61.5z" />
<glyph unicode="&#x2077;" horiz-adv-x="266" d="M129 343h-67q13 155 117 274h-162v58h232v-50q-112 -126 -120 -282z" />
<glyph unicode="&#x2078;" horiz-adv-x="275" d="M137 385q48 0 48 55q0 52 -48 52q-47 0 -47 -52q0 -55 47 -55zM137 543q20 0 30.5 12.5t10.5 32.5q0 45 -41 45q-40 0 -40 -45t40 -45zM203 524q22 -10 35.5 -33t13.5 -51q0 -49 -29 -79t-85 -30t-86 30t-30 76q0 60 52 84q-37 19 -37 73q0 40 28.5 66t72.5 26 q47 0 73 -25t26 -65q0 -54 -34 -72z" />
<glyph unicode="&#x2079;" horiz-adv-x="271" d="M134 508q22 0 35.5 17t13.5 44q0 29 -13 46.5t-37 17.5q-22 0 -34.5 -17.5t-12.5 -45.5t13 -45t35 -17zM28 414h65q2 -31 35 -31q50 0 56 105q-26 -31 -68 -31q-40 0 -67 30t-27 80q0 52 30.5 85.5t79.5 33.5q116 0 116 -167q0 -98 -30.5 -143t-92.5 -45 q-41 0 -66.5 21.5t-30.5 61.5z" />
<glyph unicode="&#x2080;" horiz-adv-x="272" d="M138 31q24 0 35.5 29t11.5 95q0 68 -11.5 97t-35.5 29q-47 0 -47 -125t47 -125zM136 -22q-113 0 -113 179q0 176 113 176q115 0 115 -175q0 -180 -115 -180z" />
<glyph unicode="&#x2081;" horiz-adv-x="176" d="M150 -10h-65v229h-68v45q41 0 59 14t21 44h53v-332z" />
<glyph unicode="&#x2082;" horiz-adv-x="260" d="M243 -10h-226q0 50 20 86t80 79q36 26 48.5 42t12.5 37q0 43 -46 43q-48 0 -48 -59h-63q0 54 28.5 84.5t79.5 30.5q52 0 82.5 -25t30.5 -72q0 -37 -20.5 -64t-75.5 -66q-44 -32 -46 -60h143v-56z" />
<glyph unicode="&#x2083;" horiz-adv-x="267" d="M107 139v45q67 0 67 46q0 51 -43 51q-19 0 -31.5 -14.5t-12.5 -40.5h-60q0 48 30 77.5t77 29.5q43 0 73 -25.5t30 -65.5q0 -52 -39 -74q49 -21 49 -82q0 -50 -32 -79t-85 -29q-51 0 -80 29t-29 80h63q0 -55 49 -55q21 0 34.5 14.5t13.5 40.5q0 29 -16.5 40.5t-57.5 11.5z " />
<glyph unicode="&#x2084;" horiz-adv-x="265" d="M147 113v117l-68 -117h68zM211 -10h-65v72h-129v57l121 203h73v-209h37v-51h-37v-72z" />
<glyph unicode="&#x2085;" horiz-adv-x="272" d="M96 120h-67l7 202h204v-55h-146l-3 -89q22 23 66 23q42 0 69 -28t27 -76q0 -54 -32 -86.5t-83 -32.5q-45 0 -77 27.5t-33 69.5h65q2 -20 14 -32t31 -12q50 0 50 63q0 55 -46 55q-32 0 -46 -29z" />
<glyph unicode="&#x2086;" horiz-adv-x="271" d="M138 31q22 0 34 17.5t12 45.5t-13 45t-34 17q-22 0 -36 -17t-14 -44q0 -29 13.5 -46.5t37.5 -17.5zM242 250h-64q-3 31 -35 31q-51 0 -57 -105q28 31 68 31q41 0 67.5 -29.5t26.5 -80.5q0 -52 -30.5 -85.5t-78.5 -33.5q-117 0 -117 167q0 98 30.5 143t93.5 45 q40 0 65.5 -21.5t30.5 -61.5z" />
<glyph unicode="&#x2087;" horiz-adv-x="266" d="M129 -10h-67q13 155 117 274h-162v58h232v-50q-112 -126 -120 -282z" />
<glyph unicode="&#x2088;" horiz-adv-x="275" d="M137 32q48 0 48 55q0 52 -48 52q-47 0 -47 -52q0 -55 47 -55zM137 190q20 0 30.5 12.5t10.5 32.5q0 45 -41 45q-40 0 -40 -45t40 -45zM203 171q22 -10 35.5 -33t13.5 -51q0 -49 -29 -79t-85 -30t-86 30t-30 76q0 60 52 84q-37 19 -37 73q0 40 28.5 66t72.5 26 q47 0 73 -25t26 -65q0 -54 -34 -72z" />
<glyph unicode="&#x2089;" horiz-adv-x="271" d="M134 155q22 0 35.5 17t13.5 44q0 29 -13 46.5t-37 17.5q-22 0 -34.5 -17.5t-12.5 -45.5t13 -45t35 -17zM28 61h65q2 -31 35 -31q50 0 56 105q-26 -31 -68 -31q-40 0 -67 30t-27 80q0 52 30.5 85.5t79.5 33.5q116 0 116 -167q0 -98 -30.5 -143t-92.5 -45q-41 0 -66.5 21.5 t-30.5 61.5z" />
<glyph unicode="&#x20ab;" horiz-adv-x="533" d="M415 110h-101l-1 50q-36 -61 -111 -61q-77 0 -125 59.5t-48 161.5q0 95 44 153.5t120 58.5q73 0 118 -64v101h-121v59h121v44h104v-44h94v-59h-94v-459zM226 187q38 0 63.5 33.5t25.5 84.5q0 134 -88 134q-91 0 -91 -127q0 -55 25 -90t65 -35zM479 0h-448v59h448v-59z " />
<glyph unicode="&#x20ac;" horiz-adv-x="621" d="M486 166l116 -65q-38 -58 -101 -91t-140 -33q-108 0 -187.5 59.5t-106.5 170.5h-58l18 76h28q-1 13 -1 41q0 23 1 32h-46l18 78h37q67 252 299 252q92 0 173 -50l-64 -117q-40 47 -108 47q-56 0 -96.5 -34.5t-59.5 -97.5h219l-41 -78h-192q0 -50 3 -73h149l-41 -76h-89 q44 -109 140 -109q92 0 130 68z" />
<glyph unicode="&#x2122;" horiz-adv-x="463" d="M135 407h-54v206h-66v51h184v-51h-64v-206zM441 407h-52v142l-55 -142l-61 148v-147h-51v256h62l49 -132l48 132h60v-257z" />
<glyph unicode="&#x2126;" horiz-adv-x="646" d="M622 0h-239v100q101 96 101 293q0 182 -161 182q-160 0 -160 -182q0 -184 100 -293v-100h-239v110h99q-47 36 -79 113t-32 171q0 139 77.5 215.5t233.5 76.5q157 0 234 -76t77 -216q0 -94 -32 -171t-79 -113h99v-110z" />
<glyph unicode="&#x2153;" horiz-adv-x="616" d="M170 343h-65v229h-68v45q41 0 59 14t21 44h53v-332zM84 -20h-67l461 704h68zM464 139v45q67 0 67 46q0 51 -43 51q-19 0 -31.5 -14.5t-12.5 -40.5h-60q0 48 30 77.5t77 29.5q43 0 73 -25.5t30 -65.5q0 -52 -39 -74q49 -21 49 -82q0 -50 -32 -79t-85 -29q-51 0 -80 29 t-29 80h63q0 -55 49 -55q21 0 34.5 14.5t13.5 40.5q0 29 -16.5 40.5t-57.5 11.5z" />
<glyph unicode="&#x2154;" horiz-adv-x="630" d="M243 343h-226q0 50 20 86t80 79q36 26 48.5 42t12.5 37q0 43 -46 43q-48 0 -48 -59h-63q0 54 28.5 84.5t79.5 30.5q52 0 82.5 -25t30.5 -72q0 -37 -20.5 -64t-75.5 -66q-44 -32 -46 -60h143v-56zM118 -20h-67l461 704h68zM478 139v45q67 0 67 46q0 51 -43 51 q-19 0 -31.5 -14.5t-12.5 -40.5h-60q0 48 30 77.5t77 29.5q43 0 73 -25.5t30 -65.5q0 -52 -39 -74q49 -21 49 -82q0 -50 -32 -79t-85 -29q-51 0 -80 29t-29 80h63q0 -55 49 -55q21 0 34.5 14.5t13.5 40.5q0 29 -16.5 40.5t-57.5 11.5z" />
<glyph unicode="&#x215b;" horiz-adv-x="601" d="M170 343h-65v229h-68v45q41 0 59 14t21 44h53v-332zM84 -20h-67l461 704h68zM474 32q48 0 48 55q0 52 -48 52q-47 0 -47 -52q0 -55 47 -55zM474 190q20 0 30.5 12.5t10.5 32.5q0 45 -41 45q-40 0 -40 -45t40 -45zM540 171q22 -10 35.5 -33t13.5 -51q0 -49 -29 -79 t-85 -30t-86 30t-30 76q0 60 52 84q-37 19 -37 73q0 40 28.5 66t72.5 26q47 0 73 -25t26 -65q0 -54 -34 -72z" />
<glyph unicode="&#x215c;" horiz-adv-x="618" d="M103 492v45q67 0 67 46q0 51 -43 51q-19 0 -31.5 -14.5t-12.5 -40.5h-60q0 48 30 77.5t77 29.5q43 0 73 -25.5t30 -65.5q0 -51 -39 -74q49 -21 49 -82q0 -50 -32 -79t-85 -29q-51 0 -80 29t-29 80h63q0 -55 49 -55q21 0 34.5 14.5t13.5 40.5q0 29 -16.5 40.5t-57.5 11.5z M111 -20h-67l461 704h68zM491 32q48 0 48 55q0 52 -48 52q-47 0 -47 -52q0 -55 47 -55zM491 190q20 0 30.5 12.5t10.5 32.5q0 45 -41 45q-40 0 -40 -45t40 -45zM557 171q22 -10 35.5 -33t13.5 -51q0 -49 -29 -79t-85 -30t-86 30t-30 76q0 60 52 84q-37 19 -37 73 q0 40 28.5 66t72.5 26q47 0 73 -25t26 -65q0 -54 -34 -72z" />
<glyph unicode="&#x215d;" horiz-adv-x="616" d="M85 473h-67l7 202h204v-55h-146l-3 -89q22 23 66 23q42 0 69 -28t27 -76q0 -54 -32 -86.5t-83 -32.5q-45 0 -77 27.5t-33 69.5h65q2 -20 14 -32t31 -12q50 0 50 63q0 55 -46 55q-32 0 -46 -29zM109 -20h-67l461 704h68zM489 32q48 0 48 55q0 52 -48 52q-47 0 -47 -52 q0 -55 47 -55zM489 190q20 0 30.5 12.5t10.5 32.5q0 45 -41 45q-40 0 -40 -45t40 -45zM555 171q22 -10 35.5 -33t13.5 -51q0 -49 -29 -79t-85 -30t-86 30t-30 76q0 60 52 84q-37 19 -37 73q0 40 28.5 66t72.5 26q47 0 73 -25t26 -65q0 -54 -34 -72z" />
<glyph unicode="&#x215e;" horiz-adv-x="621" d="M129 343h-67q13 155 117 274h-162v58h232v-50q-112 -126 -120 -282zM94 -20h-67l461 704h68zM494 32q48 0 48 55q0 52 -48 52q-47 0 -47 -52q0 -55 47 -55zM494 190q20 0 30.5 12.5t10.5 32.5q0 45 -41 45q-40 0 -40 -45t40 -45zM560 171q22 -10 35.5 -33t13.5 -51 q0 -49 -29 -79t-85 -30t-86 30t-30 76q0 60 52 84q-37 19 -37 73q0 40 28.5 66t72.5 26q47 0 73 -25t26 -65q0 -54 -34 -72z" />
<glyph unicode="&#x2202;" horiz-adv-x="567" d="M408 273q-15 22 -54 38t-82 16q-112 0 -112 -113q0 -62 33.5 -92t91.5 -30q51 0 86.5 46t36.5 135zM101 534l-44 102q57 50 199 50q50 0 90.5 -10t78 -35.5t63 -67t40.5 -108t15 -154.5q0 -334 -277 -334q-114 0 -178 65.5t-64 174.5q0 107 63.5 165t174.5 58 q38 0 77 -12t62 -35q0 87 -41.5 133.5t-103.5 46.5q-99 0 -155 -39z" />
<glyph unicode="&#x2206;" horiz-adv-x="638" d="M635 0h-632l237 664h161zM318 515l-131 -401h260l-128 401h-1z" />
<glyph unicode="&#x220f;" horiz-adv-x="593" d="M549 -233h-114v805h-279v-805h-113v897h506v-897z" />
<glyph unicode="&#x2211;" horiz-adv-x="521" d="M492 -182h-463v79l174 344l-174 344v79h463v-108h-303l150 -315l-150 -316h303v-107z" />
<glyph unicode="&#x2212;" horiz-adv-x="518" d="M494 296h-471v94h471v-94z" />
<glyph unicode="&#x221a;" horiz-adv-x="579" d="M339 0h-125l-109 287h-87v79h201l57 -201l145 499h139z" />
<glyph unicode="&#x221e;" horiz-adv-x="664" d="M332 260q-46 -85 -150 -85q-62 0 -102.5 43t-40.5 122q0 80 40.5 123.5t102.5 43.5q53 0 88 -21.5t62 -64.5q27 43 62 64.5t88 21.5q62 0 102.5 -43.5t40.5 -123.5q0 -79 -40.5 -122t-102.5 -43q-104 0 -150 85zM292 337q-39 73 -93 73q-36 0 -55 -19t-19 -51 q0 -72 74 -72q62 0 93 69zM372 337q31 -69 93 -69q74 0 74 72q0 32 -19 51t-55 19q-54 0 -93 -73z" />
<glyph unicode="&#x222b;" horiz-adv-x="454" d="M100 -233h-57v112h57q54 0 54 80v530q0 96 55 139.5t145 43.5h57v-112h-57q-54 0 -54 -80v-530q0 -96 -55 -139.5t-145 -43.5z" />
<glyph unicode="&#x2248;" horiz-adv-x="550" d="M525 286v-101q-61 -67 -148 -67q-41 0 -111.5 29t-104.5 29q-76 0 -136 -76v101q57 67 132 67q52 0 124.5 -28.5t101.5 -28.5q86 0 142 75zM525 526v-101q-61 -67 -148 -67q-41 0 -111.5 29t-104.5 29q-76 0 -136 -76v101q57 67 132 67q52 0 124.5 -28.5t101.5 -28.5 q86 0 142 75z" />
<glyph unicode="&#x2260;" horiz-adv-x="518" d="M61 -20h-67l141 216h-112v94h174l69 106h-243v94h305l127 194h68l-128 -194h99v-94h-160l-70 -106h230v-94h-291z" />
<glyph unicode="&#x2264;" horiz-adv-x="518" d="M494 96l-471 200v94l471 200v-104l-365 -143l365 -143v-104zM494 -14h-471v94h471v-94z" />
<glyph unicode="&#x2265;" horiz-adv-x="518" d="M494 296l-471 -200v104l365 143l-365 143v104l471 -200v-94zM494 -14h-471v94h471v-94z" />
<glyph unicode="&#x22c5;" horiz-adv-x="184" d="M162 265h-139v135h139v-135z" />
<glyph unicode="&#x25ca;" horiz-adv-x="550" d="M350 0h-141l-170 332l170 332h141l160 -332zM278 122l102 210l-102 210l-104 -210z" />
<glyph unicode="&#x25fc;" horiz-adv-x="490" d="M0 490h490v-490h-490v490z" />
<glyph unicode="&#xe000;" horiz-adv-x="659" d="M773 -14h121q0 -106 -54.5 -162.5t-140.5 -56.5q-88 0 -142 55.5t-54 144.5v81q-55 -71 -187 -71q-134 0 -217.5 101.5t-83.5 254.5q0 154 86 253.5t241 99.5q119 0 201 -64t89 -163h-140q-5 46 -49 79t-101 33q-85 0 -135 -64t-50 -180q0 -108 50.5 -170.5t133.5 -62.5 q68 0 115 44.5t47 107.5h-147v111h277v-384q0 -48 19.5 -69.5t50.5 -21.5q70 0 70 104z" />
<glyph unicode="&#xe001;" horiz-adv-x="518" d="M260 98q109 0 109 160q0 62 -31.5 101.5t-78.5 39.5q-49 0 -80 -41.5t-31 -107.5q0 -152 112 -152zM492 -233h-128v297q-55 -77 -146 -77q-94 0 -148 70t-54 184q0 122 59 193t154 71q92 0 137 -73l1 60h125v-725z" />
<glyph unicode="&#xe002;" horiz-adv-x="459" d="M436 280h-189l82 -83l-82 -84l-225 228l225 227l82 -83l-82 -82h189v-123z" />
<glyph unicode="&#xe003;" horiz-adv-x="460" d="M210 113l-83 84l83 83h-187v123h187l-83 82l83 83l227 -227z" />
<glyph unicode="&#xfb01;" horiz-adv-x="468" d="M205 0h-128v400h-73v92h73q0 86 51 133t148 47h169v-121h-150q-54 0 -72 -9.5t-18 -49.5h84v-92h-84v-400zM445 0h-130v492h130v-492z" />
<glyph unicode="&#xfb02;" horiz-adv-x="471" d="M445 0h-130v400h-110v-400h-128v400h-73v92h73q0 180 209 180v-105q-49 0 -65 -15.5t-16 -59.5h110v180h130v-672z" />
<glyph horiz-adv-x="541" d="M432 581h-50q0 38 25 53q23 13 23 30t-24 17q-20 0 -41 -15l-18 55q29 25 70 25q34 0 54 -16.5t20 -44.5q0 -19 -9 -33.5t-20.5 -22t-20.5 -20t-9 -28.5zM322 571l-116 101l-116 -101l-40 44l110 115h91l110 -115z" />
<glyph horiz-adv-x="323" d="M216 668h57q0 -54 -33 -84t-79 -30t-78.5 30t-32.5 84h57q0 -28 14.5 -44t39.5 -16q53 0 55 60zM261 699l-128 -55l-18 33l119 69z" />
<glyph horiz-adv-x="323" d="M214 746l39 -10q-6 -27 -20.5 -40.5t-32.5 -13.5q-13 0 -35 11t-34 11q-9 0 -17 -23l-37 18q14 45 51 45q14 0 36 -11.5t35 -11.5q12 0 15 25zM216 668h57q0 -54 -32.5 -84t-78.5 -30t-79 30t-33 84h57q2 -60 55 -60q25 0 39.5 16t14.5 44z" />
<glyph horiz-adv-x="323" d="M216 668h57q0 -54 -32.5 -84t-78.5 -30t-79 30t-33 84h57q2 -60 55 -60q25 0 39.5 16t14.5 44zM173 623h-37q0 29 19 40q17 10 17 22q0 13 -18 13q-13 0 -31 -11l-13 40q22 19 52 19q25 0 40 -12.5t15 -32.5q0 -22 -22 -41.5t-22 -36.5z" />
<glyph horiz-adv-x="649" d="M321 571l-116 101l-116 -101l-39 44l110 115h91l110 -115zM599 662l-185 -78l-25 46l171 100z" />
<glyph horiz-adv-x="649" d="M560 571l-116 101l-116 -101l-40 44l110 115h91l110 -115zM235 584l-185 78l39 68l171 -100z" />
<glyph horiz-adv-x="0" />
<glyph horiz-adv-x="323" d="M216 668h57q0 -54 -32.5 -84t-78.5 -30t-79 30t-33 84h57q2 -60 55 -60q25 0 39.5 16t14.5 44zM190 644l-128 55l27 47l119 -69z" />
</font>
</defs>
</svg>
